<svg width="54" height="54" viewBox="0 0 54 54" fill="none" xmlns="http://www.w3.org/2000/svg">
<path d="M27.1062 40.8076C19.2999 40.8076 12.9492 34.4534 12.9492 26.643C12.9492 18.8326 19.2999 12.4784 27.1062 12.4784C34.9119 12.4784 41.2627 18.8326 41.2627 26.643C41.2627 34.4534 34.9119 40.8076 27.1062 40.8076ZM27.1062 13.2284C19.7134 13.2284 13.6988 19.2462 13.6988 26.643C13.6988 34.0398 19.7134 40.0576 27.1062 40.0576C34.4988 40.0576 40.5131 34.0398 40.5131 26.643C40.5131 19.2462 34.4988 13.2284 27.1062 13.2284Z" fill="#1B3558"/>
<path d="M22.1581 11.409C23.1071 11.1005 23.8862 10.5104 24.4296 9.75821C24.4296 9.75821 22.0825 10.1401 21.1381 8.17185C21.5819 7.27576 21.6151 6.19024 21.1302 5.22801C20.8037 4.58007 20.2929 4.08547 19.6914 3.77996C19.382 4.37887 19.2518 5.07866 19.3617 5.79568C19.5262 6.86695 20.1934 7.73754 21.0843 8.20776C21.4615 10.3436 19.3507 11.4094 19.3507 11.4094C20.2322 11.6984 21.2091 11.7175 22.1581 11.409ZM15.3994 7.28741C15.6521 7.10367 15.7081 6.74975 15.5245 6.49682C15.3409 6.24395 14.9871 6.18788 14.7343 6.37162C14.4817 6.55537 14.4256 6.90923 14.6093 7.16216C14.7928 7.41503 15.1467 7.4711 15.3994 7.28741ZM12.3239 9.52307C12.5766 9.33933 12.6327 8.98541 12.449 8.73253C12.2654 8.47961 11.9117 8.42354 11.6589 8.60728C11.4062 8.79102 11.3502 9.14495 11.5338 9.39782C11.7174 9.65075 12.0712 9.70682 12.3239 9.52307ZM18.335 5.79067C18.6321 5.69401 18.7948 5.37471 18.6982 5.07743C18.6017 4.78019 18.2825 4.61745 17.9854 4.71399C17.6883 4.81065 17.5256 5.13 17.6222 5.42723C17.7187 5.72452 18.0379 5.88721 18.335 5.79067ZM18.6373 11.1031C18.8663 11.223 19.1017 11.3303 19.348 11.4103C19.3483 11.4097 19.3483 11.4091 19.3485 11.4085C19.3492 11.4088 19.3499 11.4091 19.3507 11.4094C19.563 10.7571 19.6239 10.0619 19.5311 9.37828C19.4335 8.65474 19.1632 7.94391 18.704 7.31151C18.1138 6.49873 17.306 5.93653 16.4161 5.65303C16.4161 5.65303 16.4161 5.65309 16.4161 5.65314C16.416 5.65309 16.4159 5.65309 16.4158 5.65303C16.1221 6.53994 16.1018 7.5243 16.4121 8.47966C16.7953 9.65981 17.6191 10.5713 18.6373 11.1031ZM25.2046 4.09943C25.5171 4.09943 25.7704 3.84599 25.7704 3.53339C25.7704 3.22079 25.5171 2.96741 25.2046 2.96741C24.8922 2.96741 24.639 3.22079 24.639 3.53339C24.639 3.84599 24.8922 4.09943 25.2046 4.09943ZM4.0084 25.3082C4.32083 25.3082 4.57402 25.0548 4.57402 24.7423C4.57402 24.4297 4.32083 24.1763 4.0084 24.1763C3.69592 24.1763 3.44274 24.4297 3.44274 24.7423C3.44274 25.0548 3.69592 25.3082 4.0084 25.3082ZM21.9504 4.61525C22.2476 4.51871 22.4102 4.19935 22.3136 3.90206C22.2171 3.60477 21.8979 3.44208 21.6008 3.53868C21.3037 3.63528 21.1411 3.95458 21.2376 4.25187C21.3342 4.54916 21.6533 4.71185 21.9504 4.61525ZM29.0061 4.09943C29.3185 4.09943 29.5718 3.84599 29.5718 3.53339C29.5718 3.22079 29.3185 2.96741 29.0061 2.96741C28.6937 2.96741 28.4404 3.22079 28.4404 3.53339C28.4404 3.84599 28.6937 4.09943 29.0061 4.09943ZM24.4325 9.75726C24.4329 9.75675 24.4332 9.75624 24.4335 9.75573C24.4342 9.75619 24.4346 9.75675 24.4353 9.7572C24.8347 9.20782 25.1074 8.573 25.232 7.90135C25.367 7.1773 25.3295 6.41018 25.0859 5.6599C24.7756 4.70448 24.1809 3.92002 23.4222 3.37526C23.4222 3.37526 23.4222 3.37532 23.4222 3.37538C23.4221 3.37532 23.422 3.37521 23.4219 3.37515C22.8686 4.12786 22.5454 5.05778 22.5454 6.06234C22.5454 7.3034 23.0475 8.42517 23.8518 9.24566C24.0324 9.43047 24.2231 9.60521 24.4325 9.75726ZM19.3455 11.4121C19.3455 11.4121 17.2313 12.501 15.7252 10.9211C15.8705 9.93165 15.5669 8.88903 14.8085 8.12377C14.2979 7.60846 13.6593 7.29597 12.9929 7.19149C12.8837 7.85671 12.9759 8.56247 13.3019 9.21041C13.7891 10.1784 14.6926 10.8002 15.6852 10.9719C16.7036 12.8866 15.0251 14.5528 15.0251 14.5528C15.9529 14.5551 16.8878 14.2713 17.6951 13.6845C18.5024 13.0977 19.061 12.2955 19.3455 11.4121ZM5.55125 18.2322C5.84838 18.3288 6.16755 18.1661 6.26404 17.8688C6.36065 17.5715 6.198 17.2522 5.90087 17.1556C5.60375 17.059 5.28467 17.2217 5.18807 17.519C5.09158 17.8162 5.25418 18.1355 5.55125 18.2322ZM7.78382 18.2378C8.78553 18.966 9.98528 19.2192 11.1198 19.0522C11.3773 19.0147 11.6327 18.9628 11.8807 18.8821C11.8804 18.8815 11.8802 18.8809 11.88 18.8804C11.8807 18.88 11.8815 18.88 11.8822 18.8797C11.6728 18.2332 11.3176 17.6407 10.8477 17.1449C10.3415 16.6103 9.70126 16.1885 8.95167 15.9449C7.99677 15.6344 7.01296 15.6546 6.12654 15.9486C6.12654 15.9486 6.12654 15.9486 6.12659 15.9486C6.12648 15.9487 6.12636 15.9487 6.12631 15.9487C6.40965 16.839 6.97156 17.6473 7.78382 18.2378ZM11.8794 21.6939C12.1878 20.7445 12.1685 19.767 11.8797 18.885C11.8797 18.885 10.8089 21.0094 8.66236 20.617C8.19859 19.731 7.34047 19.066 6.27744 18.8929C5.56155 18.7764 4.86136 18.8991 4.26081 19.2065C4.56322 19.8089 5.05254 20.3256 5.69692 20.6581C6.6598 21.1547 7.75592 21.1264 8.65972 20.6815C10.6085 21.6316 10.2294 23.9667 10.2294 23.9667C10.9813 23.423 11.5711 22.6435 11.8794 21.6939ZM6.13341 24.6233C7.33113 25.0127 8.57482 24.8773 9.61293 24.3456C9.82729 24.2361 10.0337 24.1113 10.2287 23.9693C10.2284 23.9688 10.2279 23.9685 10.2276 23.968C10.2282 23.9675 10.2289 23.9671 10.2294 23.9667C9.83129 23.4176 9.31169 22.9646 8.713 22.6386C8.06581 22.2854 7.32545 22.0815 6.53591 22.0815C5.53189 22.0815 4.60249 22.4049 3.8502 22.9585C3.8502 22.9586 3.85025 22.9586 3.85031 22.9586C3.85019 22.9587 3.85013 22.9588 3.85002 22.9588C4.39448 23.7179 5.17851 24.3129 6.13341 24.6233ZM4.3766 21.8496C4.67372 21.9462 4.99279 21.7835 5.08933 21.4862C5.18588 21.1889 5.02328 20.8696 4.72615 20.773C4.42908 20.6764 4.10991 20.8391 4.01336 21.1364C3.91687 21.4337 4.07942 21.753 4.3766 21.8496ZM14.2451 14.4808C14.5022 14.525 14.7617 14.5547 15.023 14.5545C15.023 14.5539 15.0229 14.5533 15.0229 14.5527C15.0237 14.5527 15.0244 14.5528 15.0251 14.5528C15.0256 13.8751 14.8716 13.2038 14.5794 12.5884C14.2632 11.9213 13.7838 11.3202 13.1445 10.8554C12.3322 10.2649 11.3903 9.98001 10.4565 9.98547V9.98564C10.4564 9.98564 10.4563 9.98558 10.4561 9.98558C10.4507 10.92 10.7355 11.8624 11.3256 12.6751C12.0531 13.6768 13.1152 14.2885 14.2451 14.4808ZM14.1533 17.2284C14.7398 16.4207 15.0234 15.4851 15.0211 14.557C15.0211 14.557 13.3467 16.2463 11.4263 15.2094C11.259 14.2234 10.6482 13.3256 9.69063 12.8324C9.0458 12.5002 8.342 12.4004 7.67585 12.5071C7.77746 13.1735 8.08325 13.8162 8.59338 14.3316C9.35569 15.1017 10.407 15.4136 11.404 15.2701C12.9639 16.7762 11.8822 18.8797 11.8822 18.8797C12.7652 18.5951 13.5668 18.0361 14.1533 17.2284ZM9.20407 11.9795C9.4568 12.1632 9.81064 12.1071 9.99417 11.8543C10.1778 11.6013 10.1219 11.2474 9.86909 11.0637C9.61636 10.88 9.26258 10.936 9.07894 11.1889C8.89535 11.4418 8.95134 11.7957 9.20407 11.9795ZM6.96964 15.0566C7.22237 15.2403 7.57609 15.1843 7.75974 14.9313C7.94338 14.6786 7.88734 14.3246 7.63461 14.1408C7.38182 13.9571 7.0281 14.0131 6.84445 14.266C6.66087 14.5189 6.71685 14.8729 6.96964 15.0566ZM29.7755 9.7572C29.7755 9.7572 27.4253 9.39467 27.1351 7.23078C27.8339 6.51579 28.2007 5.49366 28.0367 4.42864C27.9264 3.7114 27.5933 3.08304 27.1156 2.60657C26.6365 3.08045 26.2965 3.70571 26.1796 4.42166C26.0051 5.49135 26.3708 6.52564 27.073 7.24834C26.772 9.39624 24.4353 9.7572 24.4353 9.7572C25.1844 10.3045 26.1076 10.6249 27.1054 10.6249C28.1032 10.6249 29.0264 10.3045 29.7755 9.7572ZM29.4039 9.14354C29.513 9.35712 29.6373 9.56287 29.7786 9.7572C29.7791 9.75686 29.7795 9.75641 29.7799 9.75607C29.7804 9.75669 29.7808 9.75731 29.7813 9.75799C30.3349 9.35605 30.7914 8.83105 31.1177 8.22538C31.4654 7.58149 31.6654 6.84596 31.6654 6.06234C31.6654 5.05778 31.3421 4.12786 30.7888 3.37515C30.7887 3.37515 30.7887 3.37521 30.7887 3.37526C30.7887 3.37515 30.7886 3.37504 30.7886 3.37498C30.0299 3.91974 29.4353 4.7042 29.125 5.65962C28.7355 6.85896 28.8715 8.10435 29.4039 9.14354ZM42.332 21.6932C42.6403 22.6427 43.23 23.4222 43.9819 23.9659C43.9819 23.9659 43.6003 21.6175 45.5674 20.6725C46.4629 21.1166 47.5479 21.1499 48.5096 20.6647C49.1572 20.338 49.6516 19.8269 49.9569 19.2251C49.3583 18.9156 48.6589 18.7852 47.9422 18.8952C46.8716 19.0597 46.0014 19.7274 45.5315 20.6188C43.3968 20.9962 42.3316 18.8842 42.3316 18.8842C42.0429 19.7662 42.0236 20.7436 42.332 21.6932ZM47.9473 17.8679C48.0438 18.1652 48.363 18.328 48.6601 18.2313C48.9572 18.1348 49.1198 17.8154 49.0233 17.5181C48.9268 17.2209 48.6076 17.0582 48.3105 17.1548C48.0134 17.2514 47.8508 17.5707 47.9473 17.8679ZM46.4514 14.9307C46.635 15.1836 46.9888 15.2397 47.2415 15.0559C47.4943 14.8722 47.5503 14.5183 47.3667 14.2653C47.183 14.0125 46.8293 13.9564 46.5765 14.1401C46.3238 14.3239 46.2677 14.6778 46.4514 14.9307ZM49.6376 24.7414C49.6376 25.054 49.8908 25.3074 50.2032 25.3074C50.5157 25.3074 50.7689 25.054 50.7689 24.7414C50.7689 24.4288 50.5157 24.1754 50.2032 24.1754C49.8908 24.1754 49.6376 24.4288 49.6376 24.7414ZM45.0071 11.9787C45.2597 11.795 45.3158 11.4411 45.1321 11.1882C44.9486 10.9353 44.5948 10.8793 44.342 11.063C44.0893 11.2467 44.0333 11.6007 44.2169 11.8535C44.4005 12.1064 44.7543 12.1625 45.0071 11.9787ZM43.983 29.3148C43.983 29.3148 44.3453 26.9633 46.508 26.6729C47.2225 27.3721 48.2441 27.7392 49.3086 27.5751C50.0254 27.4646 50.6534 27.1314 51.1297 26.6533C50.656 26.174 50.0311 25.8339 49.3156 25.7168C48.2464 25.5423 47.2127 25.9081 46.4904 26.6107C44.3437 26.3096 43.983 23.9716 43.983 23.9716C43.4359 24.7211 43.1157 25.6448 43.1157 26.6432C43.1157 27.6415 43.4359 28.5652 43.983 29.3148ZM49.4853 20.7722C49.1881 20.8688 49.0255 21.1881 49.122 21.4854C49.2186 21.7827 49.5376 21.9454 49.8348 21.8488C50.1319 21.7521 50.2946 21.4328 50.1981 21.1356C50.1015 20.8383 49.7824 20.6756 49.4853 20.7722ZM47.6758 22.0807C46.4378 22.0807 45.3186 22.5812 44.4988 23.3833C44.3123 23.5652 44.1361 23.7576 43.9828 23.9688C43.9834 23.9692 43.9839 23.9695 43.9844 23.9699C43.9839 23.9704 43.9834 23.971 43.983 23.9716C44.5308 24.3704 45.1636 24.6427 45.8331 24.7678C46.5583 24.9039 47.3266 24.8668 48.078 24.6225C49.0329 24.3121 49.8169 23.7171 50.3613 22.958C50.3613 22.958 50.3613 22.958 50.3612 22.958C50.3613 22.9579 50.3614 22.9578 50.3614 22.9577C49.6092 22.4041 48.6798 22.0807 47.6758 22.0807ZM45.2597 15.944C44.0816 16.327 43.1714 17.1499 42.6396 18.167C42.519 18.3971 42.411 18.6339 42.3307 18.8816C42.3313 18.8818 42.3319 18.8818 42.3324 18.882C42.3323 18.8827 42.3319 18.8834 42.3316 18.8842C42.9765 19.0942 43.6629 19.1551 44.3389 19.0668C45.07 18.9718 45.7886 18.7014 46.4273 18.2371C47.2396 17.6466 47.8015 16.8384 48.0848 15.9481C48.0848 15.9481 48.0848 15.9481 48.0847 15.9481C48.0848 15.948 48.0848 15.9478 48.0848 15.9477C47.1984 15.6538 46.2145 15.6336 45.2597 15.944ZM32.2604 4.61497C32.5575 4.71157 32.8766 4.54888 32.9731 4.25165C33.0697 3.95436 32.907 3.635 32.61 3.53846C32.3129 3.44186 31.9937 3.60449 31.8972 3.90178C31.8006 4.19912 31.9633 4.51837 32.2604 4.61497ZM35.507 7.31094C34.7792 8.3132 34.5262 9.51361 34.693 10.6487C34.7305 10.9064 34.7824 11.162 34.8631 11.41C34.8637 11.4098 34.8642 11.4096 34.8648 11.4094C34.865 11.41 34.8651 11.4108 34.8654 11.4116C35.5071 11.2034 36.0952 10.8512 36.5887 10.3858C37.1279 9.87789 37.5536 9.23423 37.7987 8.47944C38.1089 7.52402 38.0887 6.53966 37.7949 5.65275C37.7949 5.65275 37.7949 5.65275 37.7948 5.65281C37.7948 5.65269 37.7948 5.65258 37.7947 5.65252C36.905 5.93602 36.0971 6.49823 35.507 7.31094ZM42.3289 18.8791C42.3289 18.8791 41.2406 16.7636 42.8197 15.2567C43.8086 15.4021 44.8507 15.0983 45.6154 14.3395C46.1304 13.8286 46.4427 13.1897 46.5472 12.5229C45.8824 12.4136 45.177 12.5059 44.5293 12.8321C43.5619 13.3195 42.9405 14.2236 42.7689 15.2167C40.8552 16.2356 39.19 14.5563 39.19 14.5563C39.1877 15.4844 39.4714 16.42 40.0578 17.2277C40.6443 18.0354 41.446 18.5943 42.3289 18.8791ZM32.0527 11.4088C33.0017 11.7173 33.9786 11.698 34.8601 11.4091C34.8601 11.4091 32.737 10.3377 33.1292 8.18992C34.0147 7.72594 34.6792 6.86735 34.8522 5.80373C34.9687 5.08745 34.846 4.38687 34.5388 3.78598C33.9368 4.08856 33.4204 4.57815 33.088 5.22289C32.5917 6.1863 32.62 7.28302 33.0646 8.18733C32.1151 10.1372 29.7813 9.75799 29.7813 9.75799C30.3247 10.5102 31.1037 11.1003 32.0527 11.4088ZM35.8758 5.79039C36.1729 5.88699 36.4921 5.72424 36.5886 5.42695C36.6852 5.12966 36.5225 4.81042 36.2254 4.71377C35.9284 4.61722 35.6092 4.77991 35.5126 5.0772C35.4161 5.37443 35.5787 5.69379 35.8758 5.79039ZM41.8871 9.52257C42.1398 9.70631 42.4935 9.65024 42.6772 9.39737C42.8608 9.14449 42.8048 8.79046 42.552 8.60683C42.2993 8.42309 41.9455 8.47916 41.7619 8.73203C41.5783 8.98496 41.6343 9.33888 41.8871 9.52257ZM41.0667 10.8546C40.0641 11.5835 39.4525 12.648 39.2612 13.7802C39.2176 14.036 39.1881 14.2941 39.1883 14.5541C39.1889 14.5541 39.1895 14.554 39.1901 14.554C39.1901 14.5547 39.19 14.5556 39.19 14.5563C39.8668 14.5568 40.5373 14.4028 41.152 14.1108C41.8192 13.7945 42.4205 13.3147 42.8853 12.6745C43.4755 11.8618 43.7602 10.9194 43.7548 9.98513H43.7546C43.7546 9.98502 43.7546 9.98485 43.7546 9.9848C42.8209 9.97933 41.879 10.2642 41.0667 10.8546ZM36.5159 13.6839C37.3231 14.2707 38.2581 14.5546 39.1858 14.5523C39.1858 14.5523 37.4974 12.8768 38.5337 10.9555C39.5192 10.788 40.4164 10.1769 40.9094 9.2188C41.2414 8.57362 41.3411 7.86944 41.2345 7.20292C40.5685 7.30464 39.9261 7.61054 39.4109 8.1209C38.6414 8.88368 38.3296 9.93554 38.4731 10.9331C36.9679 12.4939 34.8654 11.4116 34.8654 11.4116C35.1499 12.295 35.7086 13.0971 36.5159 13.6839ZM38.8116 7.28685C39.0643 7.47059 39.4181 7.41458 39.6017 7.16165C39.7854 6.90878 39.7293 6.5548 39.4765 6.37106C39.2238 6.18737 38.8701 6.24338 38.6864 6.49631C38.5028 6.74919 38.5588 7.10316 38.8116 7.28685ZM29.7792 43.5299C29.7787 43.5304 29.7784 43.531 29.7781 43.5314C29.7775 43.531 29.777 43.5304 29.7763 43.53C29.3772 44.079 29.1046 44.7134 28.9799 45.3845C28.8446 46.109 28.882 46.8766 29.1258 47.6273C29.4361 48.5828 30.0308 49.3672 30.7894 49.912C30.7894 49.9119 30.7894 49.9119 30.7895 49.9119C30.7895 49.9119 30.7896 49.912 30.7897 49.912C31.343 49.1594 31.6663 48.2295 31.6663 47.2248C31.6663 45.9863 31.166 44.8663 30.3643 44.0462C30.1825 43.8596 29.9903 43.6833 29.7792 43.5299ZM35.5778 42.186C35.3478 42.0652 35.1111 41.9572 34.8636 41.8769C34.8634 41.8775 34.8634 41.8781 34.8632 41.8787C34.8625 41.8784 34.8617 41.878 34.861 41.8778C34.6509 42.5235 34.59 43.211 34.6786 43.8878C34.7738 44.6187 35.044 45.3372 35.5077 45.9758C36.0978 46.7885 36.9057 47.3507 37.7954 47.6342C37.7955 47.6342 37.7955 47.6341 37.7955 47.634L37.7958 47.6342C38.0895 46.7474 38.1098 45.7629 37.7995 44.8075C37.4167 43.6287 36.5943 42.7181 35.5778 42.186ZM41.8877 43.7642C41.6349 43.9479 41.579 44.3018 41.7626 44.5547C41.9462 44.8076 42.3 44.8636 42.5528 44.6799C42.8054 44.4962 42.8615 44.1422 42.6778 43.8894C42.4942 43.6365 42.1405 43.5804 41.8877 43.7642ZM29.0069 49.1879C28.6945 49.1879 28.4413 49.4412 28.4413 49.7538C28.4413 50.0664 28.6945 50.3198 29.0069 50.3198C29.3194 50.3198 29.5726 50.0664 29.5726 49.7538C29.5726 49.4412 29.3194 49.1879 29.0069 49.1879ZM34.8661 41.8751C34.8661 41.8751 36.9804 40.7862 38.4865 42.3661C38.3411 43.3555 38.6448 44.3983 39.403 45.1634C39.9138 45.6787 40.5523 45.9913 41.2188 46.0957C41.328 45.4305 41.2356 44.7248 40.9098 44.0768C40.4225 43.1087 39.519 42.487 38.5264 42.3154C37.5081 40.4007 39.1864 38.7344 39.1864 38.7344C38.2589 38.7322 37.3238 39.0159 36.5165 39.6027C35.7093 40.1896 35.1506 40.9916 34.8661 41.8751ZM32.0535 41.8782C31.1045 42.1867 30.3255 42.7768 29.782 43.529C29.782 43.529 32.1292 43.1471 33.0736 45.1154C32.6298 46.0114 32.5966 47.097 33.0814 48.0592C33.4079 48.7072 33.9188 49.2018 34.5203 49.5072C34.8296 48.9084 34.9598 48.2086 34.85 47.4916C34.6856 46.4202 34.0183 45.5496 33.1272 45.0794C32.7501 42.9436 34.861 41.8778 34.861 41.8778C33.9794 41.5889 33.0025 41.5697 32.0535 41.8782ZM39.9629 38.8058C39.707 38.7621 39.4488 38.7326 39.1886 38.7327C39.1886 38.7333 39.1887 38.734 39.1887 38.7345C39.188 38.7345 39.1872 38.7344 39.1864 38.7344C39.186 39.4104 39.3395 40.08 39.6303 40.6941C39.9464 41.3631 40.4264 41.9659 41.0671 42.4318C41.8794 43.0223 42.8214 43.3072 43.7552 43.3017V43.3016C43.7553 43.3016 43.7554 43.3016 43.7554 43.3016C43.7609 42.3673 43.4762 41.4248 42.886 40.6121C42.1578 39.6093 41.0942 38.9974 39.9629 38.8058ZM32.2612 48.6719C31.9641 48.7685 31.8015 49.0878 31.898 49.3852C31.9946 49.6825 32.3136 49.8452 32.6108 49.7486C32.9079 49.652 33.0705 49.3327 32.9739 49.0354C32.8774 48.738 32.5583 48.5754 32.2612 48.6719ZM24.4361 43.53C24.4361 43.53 26.7863 43.8926 27.0766 46.0565C26.3778 46.7714 26.0109 47.7936 26.1749 48.8586C26.2853 49.5758 26.6183 50.2043 27.0961 50.6807C27.5752 50.2068 27.9151 49.5815 28.0321 48.8656C28.2066 47.7959 27.8409 46.7615 27.1388 46.039C27.4396 43.8909 29.7763 43.53 29.7763 43.53C29.0272 42.9827 28.104 42.6623 27.1063 42.6623C26.1085 42.6623 25.1853 42.9827 24.4361 43.53ZM35.8766 47.4966C35.5795 47.5932 35.4169 47.9125 35.5134 48.2098C35.61 48.507 35.9291 48.6697 36.2262 48.5732C36.5233 48.4766 36.6859 48.1573 36.5894 47.86C36.4929 47.5627 36.1737 47.4 35.8766 47.4966ZM38.8123 45.9998C38.5595 46.1835 38.5035 46.5375 38.6872 46.7904C38.8707 47.0433 39.2245 47.0994 39.4773 46.9156C39.73 46.7319 39.786 46.378 39.6024 46.125C39.4188 45.8722 39.065 45.8161 38.8123 45.9998ZM48.0783 28.6639C46.8792 28.2741 45.6341 28.4104 44.5953 28.9435C44.3822 29.0525 44.1768 29.1768 43.983 29.318C43.9833 29.3184 43.9837 29.3187 43.984 29.3193C43.9834 29.3197 43.9828 29.3201 43.9822 29.3205C44.3842 29.8751 44.9096 30.3323 45.5158 30.6589C46.1589 31.0061 46.8934 31.2058 47.6758 31.2058C48.6798 31.2058 49.6092 30.8824 50.3614 30.3287C50.3614 30.3287 50.3614 30.3287 50.3613 30.3287C50.3614 30.3286 50.3615 30.3285 50.3616 30.3284C49.8172 29.5693 49.0331 28.9743 48.0783 28.6639ZM42.3323 31.5933C42.0239 32.5428 42.0431 33.5202 42.3319 34.4023C42.3319 34.4023 43.4028 32.2779 45.5493 32.6704C46.013 33.5563 46.8712 34.2213 47.9341 34.3944C48.65 34.5109 49.3502 34.3881 49.9508 34.0808C49.6484 33.4784 49.1591 32.9617 48.5148 32.6291C47.5519 32.1325 46.4557 32.161 45.5519 32.6057C43.6031 31.6557 43.9822 29.3205 43.9822 29.3205C43.2304 29.8643 42.6406 30.6438 42.3323 31.5933ZM50.2032 27.979C49.8908 27.979 49.6376 28.2324 49.6376 28.545C49.6376 28.8576 49.8908 29.111 50.2032 29.111C50.5157 29.111 50.7689 28.8576 50.7689 28.545C50.7689 28.2324 50.5157 27.979 50.2032 27.979ZM49.8351 31.4377C49.538 31.341 49.2188 31.5038 49.1223 31.801C49.0257 32.0984 49.1884 32.4177 49.4855 32.5142C49.7826 32.6109 50.1017 32.4481 50.1983 32.1508C50.2948 31.8536 50.1322 31.5342 49.8351 31.4377ZM46.4278 35.0494C45.4246 34.3202 44.223 34.0674 43.087 34.2357C42.8311 34.2733 42.5774 34.325 42.331 34.4052C42.3311 34.4058 42.3314 34.4064 42.3316 34.4069C42.3309 34.4072 42.3301 34.4073 42.3295 34.4075C42.5377 35.0504 42.8904 35.6397 43.3565 36.1337C43.8639 36.6724 44.5065 37.0974 45.26 37.3424C46.2148 37.6528 47.1987 37.6326 48.085 37.3387C48.085 37.3386 48.085 37.3386 48.085 37.3385C48.0851 37.3385 48.0853 37.3385 48.0854 37.3384C47.8019 36.4482 47.24 35.6399 46.4278 35.0494ZM47.242 38.2306C46.9893 38.0469 46.6355 38.103 46.4518 38.3558C46.2683 38.6087 46.3243 38.9627 46.577 39.1464C46.8298 39.3302 47.1835 39.2741 47.3671 39.0212C47.5508 38.7682 47.4948 38.4144 47.242 38.2306ZM40.0583 36.0588C39.4718 36.8665 39.1882 37.8021 39.1905 38.7302C39.1905 38.7302 40.865 37.041 42.7853 38.0778C42.9526 39.0638 43.5635 39.9616 44.521 40.4548C45.1658 40.7871 45.8697 40.8868 46.5358 40.7801C46.4342 40.1137 46.1284 39.471 45.6183 38.9555C44.8559 38.1855 43.8047 37.8736 42.8077 38.0172C41.2478 36.5111 42.3295 34.4075 42.3295 34.4075C41.4465 34.6922 40.6448 35.2511 40.0583 36.0588ZM45.0075 41.3078C44.7548 41.124 44.4011 41.18 44.2174 41.4329C44.0338 41.6858 44.0898 42.0398 44.3425 42.2235C44.5953 42.4073 44.949 42.3512 45.1327 42.0984C45.3163 41.8455 45.2603 41.4915 45.0075 41.3078ZM48.6604 35.055C48.3633 34.9585 48.0441 35.1211 47.9476 35.4184C47.851 35.7157 48.0136 36.035 48.3108 36.1316C48.6078 36.2282 48.927 36.0655 49.0236 35.7682C49.1201 35.4709 48.9575 35.1516 48.6604 35.055ZM13.1449 42.4325C14.1487 41.7029 14.7606 40.6367 14.9512 39.503C14.9944 39.2485 15.0236 38.9917 15.0233 38.7331C15.0228 38.7331 15.0221 38.7332 15.0216 38.7332C15.0216 38.7324 15.0217 38.7317 15.0217 38.7309C14.3378 38.7305 13.6601 38.8867 13.0402 39.1847C12.3806 39.5012 11.7867 39.9786 11.3264 40.6127C10.7362 41.4254 10.4514 42.3679 10.4569 43.3022H10.457C10.457 43.3023 10.457 43.3024 10.457 43.3024C11.3908 43.3079 12.3327 43.023 13.1449 42.4325ZM7.7603 38.3565C7.57665 38.1036 7.22293 38.0475 6.97014 38.2313C6.71741 38.415 6.66137 38.769 6.84501 39.0219C7.02866 39.2747 7.38238 39.3308 7.63511 39.147C7.88785 38.9633 7.94388 38.6094 7.7603 38.3565ZM11.8796 31.5941C11.5713 30.6446 10.9815 29.8651 10.2297 29.3214C10.2297 29.3214 10.6114 31.6698 8.64425 32.6147C7.74866 32.1707 6.66373 32.1374 5.70203 32.6226C5.05444 32.9493 4.56001 33.4603 4.25478 34.0622C4.85337 34.3717 5.55277 34.502 6.26939 34.3921C7.34008 34.2275 8.21018 33.5599 8.68014 32.6685C10.8149 32.2911 11.88 34.4031 11.88 34.4031C12.1688 33.5211 12.188 32.5436 11.8796 31.5941ZM8.95195 37.3432C10.13 36.9603 11.0403 36.1373 11.5721 35.1202C11.6927 34.8902 11.8007 34.6534 11.8809 34.4057C11.8803 34.4055 11.8797 34.4055 11.8791 34.4053C11.8794 34.4046 11.8797 34.4038 11.88 34.4031C11.2348 34.1929 10.5477 34.132 9.87146 34.2206C9.14082 34.3158 8.42263 34.5862 7.78433 35.0501C6.97201 35.6406 6.41015 36.4489 6.12681 37.3391C6.12681 37.3392 6.12688 37.3392 6.12693 37.3392L6.12681 37.3395C7.01329 37.6334 7.99706 37.6537 8.95195 37.3432ZM9.20457 41.3085C8.95184 41.4922 8.8958 41.8462 9.07944 42.099C9.26309 42.3519 9.61681 42.408 9.8696 42.2242C10.1223 42.0405 10.1784 41.6866 9.99473 41.4337C9.81109 41.1808 9.45736 41.1247 9.20457 41.3085ZM11.8827 34.4083C11.8827 34.4083 12.971 36.5236 11.392 38.0306C10.4031 37.8851 9.36098 38.1889 8.5962 38.9477C8.08117 39.4586 7.76885 40.0975 7.66443 40.7643C8.32923 40.8736 9.03466 40.7813 9.68225 40.4551C10.6497 39.9676 11.2711 39.0636 11.4427 38.0705C13.3564 37.0516 15.0217 38.7309 15.0217 38.7309C15.024 37.8027 14.7403 36.8672 14.1538 36.0595C13.5673 35.2518 12.7656 34.6929 11.8827 34.4083ZM6.53591 31.2067C7.77622 31.2067 8.89738 30.7042 9.71752 29.8994C9.90218 29.7188 10.0768 29.528 10.2288 29.3185C10.2282 29.3181 10.2278 29.3178 10.2273 29.3174C10.2277 29.3168 10.2282 29.3163 10.2287 29.3157C9.67701 28.9141 9.03933 28.6406 8.36456 28.5168C7.64355 28.3837 6.88029 28.4221 6.13363 28.6648C5.17879 28.9752 4.39476 29.5702 3.85031 30.3293C3.85031 30.3293 3.85036 30.3293 3.85042 30.3293C3.85036 30.3294 3.85025 30.3295 3.8502 30.3296C4.60249 30.8831 5.53189 31.2067 6.53591 31.2067ZM10.2287 23.9724C10.2287 23.9724 9.8664 26.3239 7.70365 26.6144C6.98911 25.9151 5.96753 25.5481 4.90309 25.7122C4.18625 25.8227 3.55824 26.1559 3.08203 26.6339C3.55565 27.1133 4.18058 27.4534 4.89613 27.5705C5.96524 27.745 6.99901 27.3791 7.7212 26.6766C9.86797 26.9776 10.2287 29.3157 10.2287 29.3157C10.7758 28.5661 11.096 27.6424 11.096 26.644C11.096 25.6457 10.7758 24.722 10.2287 23.9724ZM4.72644 32.5151C5.02351 32.4184 5.1861 32.0992 5.08961 31.8019C4.99306 31.5046 4.67394 31.3419 4.37682 31.4385C4.07969 31.5351 3.91709 31.8544 4.01363 32.1517C4.11018 32.449 4.42931 32.6117 4.72644 32.5151ZM6.26433 35.4193C6.16778 35.122 5.84871 34.9593 5.55153 35.0559C5.25446 35.1524 5.09186 35.4718 5.1883 35.7691C5.2849 36.0664 5.60397 36.229 5.90109 36.1324C6.19827 36.0359 6.36088 35.7165 6.26433 35.4193ZM18.3359 47.4969C18.0387 47.4003 17.7196 47.5629 17.6231 47.8603C17.5265 48.1575 17.6891 48.4768 17.9863 48.5735C18.2834 48.67 18.6025 48.5073 18.699 48.2101C18.7956 47.9128 18.6329 47.5935 18.3359 47.4969ZM21.9513 48.6722C21.6542 48.5756 21.335 48.7384 21.2385 49.0356C21.1419 49.3329 21.3045 49.6522 21.6017 49.7488C21.8988 49.8454 22.2179 49.6827 22.3145 49.3854C22.411 49.0881 22.2484 48.7688 21.9513 48.6722ZM25.2055 49.1879C24.8931 49.1879 24.6399 49.4412 24.6399 49.7538C24.6399 50.0664 24.8931 50.3198 25.2055 50.3198C25.5179 50.3198 25.7712 50.0664 25.7712 49.7538C25.7712 49.4412 25.5179 49.1879 25.2055 49.1879ZM22.1589 41.8784C21.21 41.5699 20.233 41.5892 19.3514 41.8781C19.3514 41.8781 21.4746 42.9495 21.0825 45.0973C20.197 45.5612 19.5324 46.4198 19.3594 47.4835C19.243 48.1998 19.3656 48.9003 19.6728 49.5012C20.2748 49.1986 20.7913 48.7091 21.1236 48.0644C21.6199 47.1009 21.5916 46.0042 21.147 45.0999C22.0966 43.1501 24.4304 43.5293 24.4304 43.5293C23.887 42.7771 23.1079 42.187 22.1589 41.8784ZM24.8077 44.1436C24.6987 43.9301 24.5743 43.7244 24.433 43.53C24.4326 43.5304 24.4321 43.5308 24.4317 43.5312C24.4312 43.5305 24.4309 43.5299 24.4304 43.5293C23.8811 43.928 23.428 44.4484 23.1022 45.048C22.7497 45.6953 22.5463 46.4355 22.5463 47.2248C22.5463 48.2295 22.8695 49.1594 23.4228 49.912C23.4228 49.912 23.4228 49.912 23.4229 49.912C23.423 49.912 23.423 49.9121 23.4231 49.9122C24.1818 49.3675 24.7764 48.583 25.0867 47.6276C25.4761 46.4283 25.3401 45.1829 24.8077 44.1436ZM12.3246 43.7646C12.0718 43.5809 11.7181 43.6369 11.5344 43.8898C11.3509 44.1427 11.4069 44.4967 11.6596 44.6804C11.9123 44.8642 12.2661 44.8081 12.4497 44.5552C12.6333 44.3023 12.5773 43.9484 12.3246 43.7646ZM18.7046 45.9762C19.4323 44.9742 19.6854 43.7741 19.5187 42.6391C19.4812 42.3812 19.4293 42.1255 19.3486 41.8772C19.3479 41.8774 19.3474 41.8776 19.3468 41.8778C19.3466 41.8771 19.3465 41.8763 19.3462 41.8756C18.7 42.0853 18.1076 42.4406 17.6121 42.9109C17.0779 43.4173 16.6564 44.0579 16.413 44.8078C16.1027 45.7632 16.1229 46.7475 16.4167 47.6344H16.4168C16.4169 47.6345 16.4169 47.6346 16.4169 47.6347C17.3066 47.3512 18.1145 46.789 18.7046 45.9762ZM15.4 46.0003C15.1473 45.8166 14.7936 45.8727 14.6099 46.1256C14.4263 46.3784 14.4823 46.7324 14.7351 46.9161C14.9878 47.0999 15.3416 47.0439 15.5252 46.7909C15.7089 46.5381 15.6528 46.1841 15.4 46.0003ZM4.57402 28.5458C4.57402 28.2333 4.32083 27.9798 4.0084 27.9798C3.69592 27.9798 3.44274 28.2333 3.44274 28.5458C3.44274 28.8584 3.69592 29.1119 4.0084 29.1119C4.32083 29.1119 4.57402 28.8584 4.57402 28.5458ZM17.6958 39.6033C16.8886 39.0164 15.9535 38.7326 15.0259 38.7349C15.0259 38.7349 16.7142 40.4103 15.6779 42.3318C14.6925 42.4992 13.7952 43.1103 13.3022 44.0684C12.9702 44.7136 12.8705 45.4178 12.9771 46.0843C13.6432 45.9826 14.2855 45.6767 14.8007 45.1663C15.5703 44.4035 15.882 43.3517 15.7385 42.3541C17.2438 40.7934 19.3462 41.8756 19.3462 41.8756C19.0618 40.9922 18.503 40.1901 17.6958 39.6033Z" fill="#1B3558"/>
<path d="M26.9977 53.6166C12.3168 53.6166 0.373047 41.6661 0.373047 26.9773C0.373047 12.2883 12.3168 0.337891 26.9977 0.337891C41.6786 0.337891 53.6222 12.2883 53.6222 26.9773C53.6222 41.6661 41.6786 53.6166 26.9977 53.6166ZM26.9977 1.11993C12.7478 1.11993 1.15465 12.7195 1.15465 26.9773C1.15465 41.235 12.7478 52.8346 26.9977 52.8346C41.2475 52.8346 52.8406 41.235 52.8406 26.9773C52.8406 12.7195 41.2475 1.11993 26.9977 1.11993Z" fill="#1B3558"/>
<path d="M22.3796 23.9887C22.2885 24.7705 22.2812 25.5525 22.3758 26.3342C21.621 26.3779 20.9857 26.1474 21.0069 27.0668L21.0163 28.6177C22.2994 29.8379 24.6969 30.0896 26.4379 29.2192C28.7694 28.0229 29.3735 24.2687 27.496 21.9038C28.1625 21.2978 28.9246 20.9382 29.8321 20.9518C30.636 22.1973 31.0997 23.6013 31.1233 25.2102C30.7954 31.6361 25.2727 33.2309 20.9955 31.3916L20.9624 33.7358C20.949 34.179 20.925 34.1959 20.5241 34.2038H19.0681C18.6756 34.2038 18.6406 34.2357 18.6406 33.7182V24.4308C18.6406 24.0152 18.6917 24.0103 19.0761 24.0033L22.3796 23.9887ZM26.0392 18.2883C25.1554 18.7088 24.5799 19.3543 23.9759 20.0097C23.7349 20.2713 23.7421 20.282 23.3887 20.3466C22.4358 20.5209 21.5423 20.918 20.702 21.5242C20.2557 21.5242 19.4766 20.7311 19.2662 20.2103C19.1933 20.0294 19.19 20.0148 19.3045 19.8764C20.6111 18.2959 23.7297 17.495 26.0392 18.2883ZM31.5783 26.3605C31.6974 25.5923 31.7008 24.7698 31.5865 23.9845H34.8258C35.0011 23.9822 35.3313 23.9919 35.3537 24.5242V33.9168C35.3573 34.2021 35.2808 34.2055 35.0879 34.2041H33.2609C33.0789 34.205 33.021 34.1951 33.0207 33.9462L33.0177 31.4091C31.4089 32.1394 29.6651 32.2602 27.8019 31.8413C28.8731 31.4126 29.6855 30.7257 30.2737 29.7531C31.4065 29.6109 32.1513 29.2931 32.6777 28.9022C32.9717 28.6837 33.0047 28.5594 33.005 28.191L33.0061 26.6724C32.9943 26.3634 32.8222 26.3721 32.6607 26.3517L31.5783 26.3605ZM34.738 20.2323L33.6981 21.3686C33.4091 21.6805 33.4337 21.5995 33.1021 21.3469C32.9856 21.2583 32.8624 21.1802 32.7384 21.1053C31.2063 20.1772 29.286 20.0867 27.942 20.763C25.4705 22.0067 24.2895 25.5478 26.576 28.4638C25.8953 28.9472 25.0039 29.1387 23.9562 29.113C20.6252 23.6959 25.2405 16.5024 31.7072 18.222C32.6848 18.4819 33.6469 18.9912 34.6573 19.7341C34.9493 19.9489 35.0014 19.9568 34.738 20.2323Z" fill="#1B3558"/>
</svg>
