<svg width="77" height="92" viewBox="0 0 77 92" fill="none" xmlns="http://www.w3.org/2000/svg">
<path fill-rule="evenodd" clip-rule="evenodd" d="M0 73.3792C0 73.3792 1.19509 73.3424 3.28633 73.2778C5.37757 73.2312 8.36518 73.1648 11.9501 73.0851C13.7427 73.0581 15.6846 73.0291 17.7385 72.9984C19.7925 72.9749 21.9584 72.9505 24.1991 72.9249C28.6804 72.9029 33.4605 72.8791 38.2406 72.8553C43.0206 72.8787 47.8007 72.9022 52.282 72.9242C54.5227 72.9494 56.6886 72.9735 58.7427 72.9966C60.7965 73.0277 62.7384 73.057 64.5309 73.084C66.3234 73.1208 67.9666 73.1543 69.4231 73.184C70.8795 73.22 72.1492 73.2511 73.1948 73.277C75.2862 73.3421 76.4811 73.3792 76.4811 73.3792C76.4811 73.3792 75.2862 73.4162 73.1948 73.4812C72.1492 73.5071 70.8795 73.5386 69.4231 73.5746C67.9666 73.6043 66.3234 73.6379 64.5309 73.6742C62.7384 73.7015 60.7965 73.7309 58.7427 73.7617C56.6886 73.7847 54.5227 73.8093 52.282 73.834C47.8007 73.856 43.0206 73.8795 38.2406 73.9033C33.4605 73.8795 28.6804 73.8557 24.1991 73.8333C21.9584 73.8081 19.7925 73.7834 17.7385 73.7603C15.6846 73.7292 13.7427 73.7001 11.9501 73.6732C8.36518 73.5935 5.37757 73.5274 3.28633 73.4809C1.19509 73.4162 0 73.3792 0 73.3792Z" fill="#D7B483"/>
<path d="M66.4384 59.0342C66.7803 58.9747 67.2859 58.9004 67.955 58.9004C70.6907 58.9004 72.0288 60.4028 72.0139 62.7682C72.0139 65.4757 70.5123 67.0229 67.7468 67.0229C67.2413 67.0229 66.7655 67.008 66.4384 66.9484V59.0342ZM65.13 67.9452C65.7991 68.0196 66.5722 68.0642 67.4941 68.0642C69.4417 68.0642 70.9732 67.5584 71.9247 66.6212C72.8614 65.684 73.3669 64.36 73.3669 62.7236C73.3669 61.117 72.8466 59.9417 71.9545 59.1235C71.0773 58.3053 69.754 57.874 67.8955 57.874C66.8696 57.874 65.9329 57.9632 65.13 58.0822V67.9452ZM58.1123 67.9749H63.7027V66.8741H59.4206V57.9484H58.1123V67.9749ZM51.8825 58.8409C54.083 58.8409 55.0791 60.9236 55.0791 62.9765C55.0791 65.1633 53.9788 67.0823 51.8676 67.0823C49.8307 67.0823 48.671 65.2526 48.671 62.9765C48.671 60.7153 49.8009 58.8409 51.8825 58.8409ZM51.9717 57.7847C49.2063 57.7847 47.2883 59.9417 47.2883 63.0211C47.2883 66.0112 49.0873 68.1386 51.7933 68.1386C54.3209 68.1386 56.447 66.2791 56.447 62.9468C56.447 60.0458 54.8264 57.7847 51.9717 57.7847ZM45.9055 62.7087H42.6048V63.75H44.6418V66.7403C44.3445 66.8889 43.7646 67.008 42.9171 67.008C40.5679 67.008 39.0514 65.5054 39.0514 62.9616C39.0514 60.4475 40.6422 58.9301 43.0806 58.9301C44.0916 58.9301 44.7608 59.1235 45.2959 59.3616L45.6082 58.3053C45.1919 58.1119 44.2701 57.8442 43.1103 57.8442C39.7501 57.8442 37.6983 60.0458 37.6835 63.0211C37.6835 64.5831 38.2188 65.922 39.0811 66.7551C40.0624 67.6923 41.3113 68.0791 42.8279 68.0791C44.1809 68.0791 45.3256 67.7369 45.9055 67.5286V62.7087ZM28.0787 67.9749H33.6691V66.8741H29.3871V57.9484H28.0787V67.9749ZM18.4591 57.9484V63.8691C18.4591 66.9782 20.0053 68.1386 22.0572 68.1386C24.2279 68.1386 25.8337 66.8889 25.8337 63.8096V57.9484H24.5402V63.9137C24.5402 66.1005 23.5738 67.0823 22.1018 67.0823C20.7488 67.0823 19.7675 66.1302 19.7675 63.9137V57.9484H18.4591ZM16.0356 67.9749H17.4183L13.9987 57.9484H12.4524L9.03269 67.9749H10.3857L12.6605 60.9086C12.8539 60.2988 13.0174 59.6889 13.1511 59.0938H13.1958C13.3445 59.6739 13.4932 60.269 13.7161 60.9236L16.0356 67.9749ZM3.11523 67.9749H4.42358V64.003C4.69117 64.0475 5.07775 64.0773 5.49404 64.0773C6.72817 64.0773 7.84318 63.7054 8.52717 62.9765C9.03269 62.4558 9.30028 61.7417 9.30028 60.8194C9.30028 59.912 8.95832 59.1831 8.42309 58.707C7.82833 58.1714 6.89161 57.874 5.61298 57.874C4.58708 57.874 3.73958 57.9632 3.11523 58.0673V67.9749ZM4.42358 58.9896C4.64655 58.9449 5.06284 58.9004 5.64274 58.9004C7.07007 58.9004 8.00679 59.54 8.00679 60.8938C8.00679 62.2624 7.05522 63.0361 5.49404 63.0361C5.06284 63.0361 4.6317 63.0063 4.42358 62.9468V58.9896Z" fill="#D7B483"/>
<path d="M38.3484 40.4697C30.5421 40.4697 24.1914 34.1155 24.1914 26.3051C24.1914 18.4947 30.5421 12.1405 38.3484 12.1405C46.1541 12.1405 52.5048 18.4947 52.5048 26.3051C52.5048 34.1155 46.1541 40.4697 38.3484 40.4697ZM38.3484 12.8905C30.9556 12.8905 24.941 18.9083 24.941 26.3051C24.941 33.7019 30.9556 39.7197 38.3484 39.7197C45.741 39.7197 51.7553 33.7019 51.7553 26.3051C51.7553 18.9083 45.741 12.8905 38.3484 12.8905Z" fill="#D7B483"/>
<path d="M33.4003 11.0711C34.3493 10.7627 35.1284 10.1725 35.6717 9.42032C35.6717 9.42032 33.3247 9.80216 32.3802 7.83396C32.8241 6.93787 32.8572 5.85235 32.3724 4.89012C32.0459 4.24218 31.5351 3.74758 30.9336 3.44207C30.6242 4.04098 30.494 4.74077 30.6039 5.45779C30.7684 6.52906 31.4356 7.39965 32.3265 7.86987C32.7037 10.0057 30.5929 11.0715 30.5929 11.0715C31.4744 11.3605 32.4513 11.3796 33.4003 11.0711ZM26.6416 6.94952C26.8943 6.76578 26.9503 6.41186 26.7667 6.15893C26.5831 5.90606 26.2293 5.84999 25.9765 6.03373C25.7239 6.21748 25.6678 6.57134 25.8515 6.82427C26.035 7.07714 26.3889 7.13321 26.6416 6.94952ZM23.5661 9.18518C23.8188 9.00144 23.8749 8.64752 23.6912 8.39464C23.5076 8.14171 23.1539 8.08565 22.9011 8.26939C22.6484 8.45313 22.5924 8.80705 22.776 9.05993C22.9596 9.31286 23.3134 9.36892 23.5661 9.18518ZM29.5772 5.45278C29.8743 5.35612 30.037 5.03682 29.9403 4.73953C29.8439 4.4423 29.5247 4.27956 29.2276 4.3761C28.9305 4.47276 28.7678 4.79211 28.8644 5.08934C28.9609 5.38663 29.2801 5.54932 29.5772 5.45278ZM29.8795 10.7652C30.1085 10.8851 30.3439 10.9924 30.5902 11.0724C30.5905 11.0718 30.5905 11.0712 30.5907 11.0706C30.5914 11.0709 30.5921 11.0713 30.5929 11.0715C30.8052 10.4192 30.866 9.72403 30.7733 9.04039C30.6757 8.31685 30.4054 7.60602 29.9461 6.97362C29.356 6.16084 28.5482 5.59864 27.6583 5.31514C27.6583 5.31514 27.6583 5.3152 27.6583 5.31525C27.6582 5.3152 27.6581 5.3152 27.658 5.31514C27.3643 6.20205 27.344 7.18641 27.6543 8.14177C28.0375 9.32192 28.8613 10.2334 29.8795 10.7652ZM36.4468 3.76154C36.7592 3.76154 37.0125 3.5081 37.0125 3.1955C37.0125 2.8829 36.7592 2.62952 36.4468 2.62952C36.1344 2.62952 35.8812 2.8829 35.8812 3.1955C35.8812 3.5081 36.1344 3.76154 36.4468 3.76154ZM15.2506 24.9704C15.563 24.9704 15.8162 24.7169 15.8162 24.4044C15.8162 24.0918 15.563 23.8384 15.2506 23.8384C14.9381 23.8384 14.6849 24.0918 14.6849 24.4044C14.6849 24.7169 14.9381 24.9704 15.2506 24.9704ZM33.1926 4.27736C33.4898 4.18082 33.6524 3.86146 33.5558 3.56417C33.4593 3.26688 33.1401 3.10419 32.843 3.20079C32.5459 3.29739 32.3833 3.61669 32.4798 3.91398C32.5764 4.21127 32.8955 4.37396 33.1926 4.27736ZM40.2483 3.76154C40.5607 3.76154 40.814 3.5081 40.814 3.1955C40.814 2.8829 40.5607 2.62952 40.2483 2.62952C39.9359 2.62952 39.6826 2.8829 39.6826 3.1955C39.6826 3.5081 39.9359 3.76154 40.2483 3.76154ZM35.6747 9.41936C35.6751 9.41886 35.6753 9.41835 35.6757 9.41784C35.6764 9.41829 35.6768 9.41886 35.6775 9.41931C36.0769 8.86993 36.3495 8.23511 36.4742 7.56346C36.6091 6.83941 36.5717 6.07229 36.3281 5.32201C36.0178 4.36659 35.4231 3.58213 34.6644 3.03737C34.6644 3.03737 34.6644 3.03743 34.6644 3.03749C34.6642 3.03743 34.6642 3.03732 34.6641 3.03726C34.1108 3.78997 33.7876 4.71989 33.7876 5.72445C33.7876 6.96551 34.2896 8.08728 35.094 8.90777C35.2746 9.09258 35.4653 9.26731 35.6747 9.41936ZM30.5877 11.0742C30.5877 11.0742 28.4735 12.1631 26.9674 10.5832C27.1127 9.59376 26.8091 8.55114 26.0507 7.78588C25.5401 7.27057 24.9015 6.95808 24.2351 6.8536C24.1259 7.51882 24.2181 8.22458 24.5441 8.87252C25.0313 9.84056 25.9348 10.4623 26.9274 10.634C27.9458 12.5487 26.2673 14.2149 26.2673 14.2149C27.1951 14.2172 28.13 13.9334 28.9373 13.3466C29.7446 12.7598 30.3032 11.9577 30.5877 11.0742ZM16.7934 17.8943C17.0906 17.9909 17.4097 17.8282 17.5062 17.5309C17.6028 17.2336 17.4402 16.9143 17.1431 16.8177C16.8459 16.7211 16.5269 16.8838 16.4303 17.1811C16.3338 17.4784 16.4964 17.7977 16.7934 17.8943ZM19.026 17.8999C20.0277 18.6281 21.2275 18.8813 22.362 18.7143C22.6195 18.6768 22.8749 18.625 23.1229 18.5442C23.1226 18.5436 23.1224 18.543 23.1222 18.5425C23.1229 18.5421 23.1237 18.5421 23.1244 18.5419C22.915 17.8953 22.5598 17.3028 22.0899 16.807C21.5837 16.2724 20.9434 15.8506 20.1939 15.607C19.239 15.2965 18.2551 15.3167 17.3687 15.6107C17.3687 15.6107 17.3687 15.6107 17.3688 15.6107C17.3687 15.6108 17.3686 15.6108 17.3685 15.6109C17.6518 16.5011 18.2137 17.3094 19.026 17.8999ZM23.1216 21.3561C23.4299 20.4066 23.4107 19.4291 23.1219 18.5471C23.1219 18.5471 22.0511 20.6715 19.9045 20.2791C19.4408 19.3931 18.5827 18.7281 17.5196 18.555C16.8037 18.4385 16.1035 18.5612 15.503 18.8686C15.8054 19.471 16.2947 19.9877 16.9391 20.3202C17.902 20.8168 18.9981 20.7885 19.9019 20.3436C21.8507 21.2937 21.4716 23.6288 21.4716 23.6288C22.2235 23.0851 22.8132 22.3056 23.1216 21.3561ZM17.3756 24.2854C18.5733 24.6748 19.817 24.5394 20.8551 24.0077C21.0695 23.8982 21.2759 23.7734 21.4709 23.6315C21.4706 23.6309 21.4701 23.6306 21.4698 23.6301C21.4704 23.6297 21.4711 23.6292 21.4716 23.6288C21.0735 23.0797 20.5539 22.6267 19.9552 22.3007C19.308 21.9475 18.5676 21.7436 17.7781 21.7436C16.7741 21.7436 15.8447 22.067 15.0924 22.6206C15.0924 22.6207 15.0924 22.6207 15.0925 22.6208C15.0924 22.6208 15.0923 22.6209 15.0922 22.6209C15.6367 23.38 16.4207 23.975 17.3756 24.2854ZM15.6188 21.5117C15.9159 21.6083 16.235 21.4456 16.3315 21.1483C16.4281 20.851 16.2655 20.5317 15.9683 20.4351C15.6713 20.3385 15.3521 20.5012 15.2555 20.7985C15.1591 21.0958 15.3216 21.4151 15.6188 21.5117ZM25.4872 14.1429C25.7444 14.1871 26.0039 14.2168 26.2651 14.2166C26.2651 14.216 26.2651 14.2154 26.2651 14.2148C26.2659 14.2148 26.2666 14.2149 26.2673 14.2149C26.2678 13.5372 26.1138 12.8659 25.8216 12.2506C25.5054 11.5834 25.026 10.9823 24.3867 10.5175C23.5744 9.92702 22.6325 9.64212 21.6987 9.64758V9.64775C21.6986 9.64775 21.6984 9.64769 21.6983 9.64769C21.6929 10.5821 21.9777 11.5245 22.5678 12.3372C23.2952 13.3389 24.3574 13.9506 25.4872 14.1429ZM25.3955 16.8905C25.982 16.0828 26.2656 15.1472 26.2633 14.2191C26.2633 14.2191 24.5888 15.9084 22.6685 14.8715C22.5012 13.8856 21.8904 12.9877 20.9328 12.4945C20.288 12.1623 19.5842 12.0625 18.918 12.1692C19.0196 12.8356 19.3254 13.4783 19.8356 13.9938C20.5979 14.7638 21.6492 15.0757 22.6461 14.9322C24.2061 16.4383 23.1244 18.5419 23.1244 18.5419C24.0074 18.2572 24.809 17.6982 25.3955 16.8905ZM20.4463 11.6416C20.699 11.8253 21.0528 11.7692 21.2364 11.5164C21.42 11.2634 21.3641 10.9095 21.1113 10.7258C20.8585 10.5421 20.5048 10.5981 20.3211 10.851C20.1375 11.1039 20.1935 11.4578 20.4463 11.6416ZM18.2118 14.7187C18.4646 14.9025 18.8183 14.8464 19.0019 14.5935C19.1856 14.3407 19.1295 13.9867 18.8768 13.8029C18.624 13.6192 18.2703 13.6752 18.0866 13.9281C17.9031 14.181 17.959 14.535 18.2118 14.7187ZM41.0177 9.41931C41.0177 9.41931 38.6675 9.05678 38.3773 6.89289C39.0761 6.1779 39.4429 5.15577 39.2789 4.09075C39.1685 3.3735 38.8355 2.74515 38.3577 2.26868C37.8787 2.74256 37.5387 3.36782 37.4218 4.08376C37.2473 5.15346 37.613 6.18775 38.3151 6.91045C38.0141 9.05835 35.6775 9.41931 35.6775 9.41931C36.4266 9.96665 37.3498 10.287 38.3476 10.287C39.3454 10.287 40.2686 9.96665 41.0177 9.41931ZM40.6461 8.80565C40.7552 9.01923 40.8795 9.22498 41.0208 9.41931C41.0213 9.41897 41.0217 9.41852 41.0221 9.41818C41.0226 9.4188 41.023 9.41942 41.0235 9.4201C41.5771 9.01816 42.0336 8.49316 42.3599 7.88749C42.7075 7.2436 42.9076 6.50807 42.9076 5.72445C42.9076 4.71989 42.5843 3.78997 42.031 3.03726C42.0309 3.03726 42.0309 3.03732 42.0309 3.03737C42.0309 3.03726 42.0308 3.03715 42.0308 3.03709C41.2721 3.58185 40.6775 4.3663 40.3672 5.32173C39.9777 6.52107 40.1137 7.76646 40.6461 8.80565ZM53.5742 21.3553C53.8825 22.3048 54.4722 23.0843 55.2241 23.628C55.2241 23.628 54.8424 21.2796 56.8096 20.3346C57.7051 20.7787 58.79 20.812 59.7517 20.3268C60.3994 20.0001 60.8938 19.489 61.199 18.8872C60.6005 18.5777 59.9011 18.4473 59.1844 18.5573C58.1137 18.7218 57.2436 19.3895 56.7737 20.2809C54.639 20.6583 53.5738 18.5463 53.5738 18.5463C53.285 19.4283 53.2658 20.4058 53.5742 21.3553ZM59.1895 17.53C59.286 17.8273 59.6052 17.9901 59.9023 17.8934C60.1994 17.7969 60.362 17.4775 60.2655 17.1802C60.169 16.883 59.8498 16.7203 59.5527 16.8169C59.2555 16.9135 59.0929 17.2328 59.1895 17.53ZM57.6936 14.5928C57.8772 14.8457 58.2309 14.9018 58.4837 14.718C58.7365 14.5343 58.7924 14.1804 58.6089 13.9274C58.4252 13.6746 58.0714 13.6185 57.8186 13.8022C57.566 13.986 57.5099 14.3399 57.6936 14.5928ZM60.8798 24.4035C60.8798 24.7161 61.133 24.9695 61.4454 24.9695C61.7578 24.9695 62.0111 24.7161 62.0111 24.4035C62.0111 24.0909 61.7578 23.8375 61.4454 23.8375C61.133 23.8375 60.8798 24.0909 60.8798 24.4035ZM56.2492 11.6408C56.5019 11.4572 56.558 11.1032 56.3743 10.8503C56.1908 10.5974 55.837 10.5414 55.5842 10.7251C55.3315 10.9088 55.2755 11.2628 55.4591 11.5156C55.6427 11.7685 55.9965 11.8246 56.2492 11.6408ZM55.2251 28.9769C55.2251 28.9769 55.5874 26.6255 57.7502 26.335C58.4647 27.0342 59.4863 27.4013 60.5508 27.2373C61.2676 27.1268 61.8956 26.7935 62.3718 26.3154C61.8982 25.8361 61.2733 25.496 60.5578 25.3789C59.4886 25.2044 58.4549 25.5702 57.7326 26.2728C55.5859 25.9717 55.2251 23.6337 55.2251 23.6337C54.678 24.3833 54.3579 25.3069 54.3579 26.3053C54.3579 27.3036 54.678 28.2274 55.2251 28.9769ZM60.7274 20.4343C60.4303 20.531 60.2677 20.8502 60.3642 21.1475C60.4608 21.4448 60.7798 21.6075 61.077 21.5109C61.3741 21.4143 61.5367 21.095 61.4402 20.7977C61.3436 20.5004 61.0246 20.3378 60.7274 20.4343ZM58.918 21.7428C57.68 21.7428 56.5608 22.2433 55.741 23.0454C55.5545 23.2273 55.3782 23.4197 55.225 23.631C55.2255 23.6313 55.226 23.6316 55.2266 23.632C55.2261 23.6325 55.2255 23.6331 55.2251 23.6337C55.773 24.0325 56.4058 24.3048 57.0753 24.4299C57.8005 24.566 58.5688 24.5289 59.3201 24.2846C60.275 23.9742 61.0591 23.3792 61.6035 22.6201C61.6035 22.6201 61.6035 22.6201 61.6034 22.6201C61.6035 22.62 61.6036 22.6199 61.6036 22.6199C60.8514 22.0662 59.922 21.7428 58.918 21.7428ZM56.5019 15.6061C55.3238 15.9891 54.4136 16.812 53.8818 17.8291C53.7611 18.0593 53.6532 18.296 53.5729 18.5437C53.5734 18.5439 53.5741 18.5439 53.5746 18.5441C53.5745 18.5448 53.5741 18.5455 53.5738 18.5463C54.2187 18.7563 54.9051 18.8172 55.5811 18.7289C56.3121 18.6339 57.0308 18.3635 57.6695 17.8992C58.4818 17.3087 59.0437 16.5005 59.327 15.6102C59.3269 15.6102 59.327 15.6102 59.3269 15.6102C59.327 15.6101 59.3269 15.6099 59.327 15.6098C58.4406 15.3159 57.4567 15.2957 56.5019 15.6061ZM43.5026 4.27708C43.7997 4.37368 44.1188 4.21099 44.2153 3.91376C44.3119 3.61647 44.1492 3.29711 43.8522 3.20057C43.5551 3.10397 43.2359 3.2666 43.1394 3.56389C43.0428 3.86123 43.2055 4.18048 43.5026 4.27708ZM46.7492 6.97305C46.0214 7.97531 45.7684 9.17572 45.9352 10.3108C45.9727 10.5685 46.0246 10.8241 46.1053 11.0721C46.1059 11.0719 46.1064 11.0717 46.107 11.0715C46.1072 11.0722 46.1073 11.0729 46.1076 11.0737C46.7493 10.8656 47.3374 10.5133 47.8309 10.0479C48.3701 9.54 48.7958 8.89634 49.0409 8.14155C49.3511 7.18612 49.3309 6.20177 49.0371 5.31486C49.0371 5.31486 49.0371 5.31486 49.037 5.31491C49.037 5.3148 49.037 5.31469 49.0369 5.31463C48.1472 5.59813 47.3393 6.16034 46.7492 6.97305ZM53.5711 18.5412C53.5711 18.5412 52.4828 16.4257 54.0619 14.9188C55.0508 15.0642 56.0928 14.7604 56.8576 14.0016C57.3726 13.4907 57.6849 12.8518 57.7894 12.185C57.1245 12.0757 56.4192 12.168 55.7715 12.4942C54.8041 12.9816 54.1827 13.8857 54.0111 14.8788C52.0974 15.8977 50.4322 14.2184 50.4322 14.2184C50.4299 15.1465 50.7135 16.0822 51.3 16.8898C51.8865 17.6975 52.6881 18.2565 53.5711 18.5412ZM43.2949 11.0709C44.2439 11.3794 45.2208 11.3602 46.1023 11.0712C46.1023 11.0712 43.9792 9.99981 44.3713 7.85203C45.2569 7.38805 45.9214 6.52946 46.0944 5.46584C46.2109 4.74955 46.0882 4.04898 45.781 3.44809C45.179 3.75067 44.6626 4.24026 44.3302 4.885C43.8339 5.84841 43.8622 6.94513 44.3068 7.84944C43.3573 9.79935 41.0235 9.4201 41.0235 9.4201C41.5669 10.1723 42.3459 10.7624 43.2949 11.0709ZM47.118 5.4525C47.4151 5.5491 47.7342 5.38635 47.8308 5.08906C47.9273 4.79177 47.7647 4.47253 47.4676 4.37587C47.1705 4.27933 46.8514 4.44202 46.7548 4.73931C46.6583 5.03654 46.8209 5.3559 47.118 5.4525ZM53.1292 9.18468C53.382 9.36842 53.7357 9.31235 53.9193 9.05948C54.103 8.8066 54.047 8.45257 53.7942 8.26894C53.5415 8.0852 53.1877 8.14127 53.0041 8.39414C52.8205 8.64707 52.8764 9.00099 53.1292 9.18468ZM52.3089 10.5168C51.3063 11.2456 50.6947 12.3101 50.5033 13.4423C50.4597 13.6981 50.4303 13.9562 50.4305 14.2162C50.431 14.2162 50.4317 14.2161 50.4323 14.2161C50.4323 14.2168 50.4322 14.2177 50.4322 14.2184C51.109 14.2189 51.7795 14.0649 52.3942 13.7729C53.0614 13.4566 53.6627 12.9768 54.1275 12.3366C54.7177 11.5239 55.0024 10.5815 54.997 9.64724H54.9968C54.9968 9.64713 54.9968 9.64696 54.9968 9.6469C54.063 9.64144 53.1211 9.92635 52.3089 10.5168ZM47.758 13.346C48.5652 13.9328 49.5003 14.2167 50.4279 14.2144C50.4279 14.2144 48.7396 12.539 49.7759 10.6176C50.7614 10.4501 51.6586 9.83898 52.1516 8.88091C52.4836 8.23573 52.5833 7.53155 52.4767 6.86503C51.8107 6.96675 51.1683 7.27265 50.6531 7.78301C49.8836 8.54579 49.5718 9.59765 49.7153 10.5952C48.2101 12.156 46.1076 11.0737 46.1076 11.0737C46.3921 11.9572 46.9508 12.7592 47.758 13.346ZM50.0537 6.94896C50.3065 7.1327 50.6603 7.07669 50.8439 6.82376C51.0275 6.57089 50.9715 6.21691 50.7187 6.03317C50.466 5.84948 50.1123 5.90549 49.9286 6.15842C49.745 6.4113 49.801 6.76527 50.0537 6.94896ZM41.0213 43.192C41.0209 43.1925 41.0206 43.1931 41.0203 43.1936C41.0197 43.1931 41.0191 43.1925 41.0185 43.1922C40.6193 43.7411 40.3468 44.3755 40.2221 45.0466C40.0868 45.7711 40.1242 46.5387 40.368 47.2895C40.6783 48.2449 41.273 49.0293 42.0316 49.5741C42.0316 49.574 42.0316 49.574 42.0317 49.574C42.0317 49.574 42.0318 49.5741 42.0319 49.5741C42.5852 48.8215 42.9085 47.8916 42.9085 46.8869C42.9085 45.6484 42.4082 44.5285 41.6065 43.7083C41.4247 43.5217 41.2325 43.3454 41.0213 43.192ZM46.82 41.8481C46.59 41.7273 46.3533 41.6193 46.1058 41.539C46.1056 41.5396 46.1055 41.5402 46.1054 41.5408C46.1046 41.5405 46.1039 41.5401 46.1032 41.5399C45.893 42.1856 45.8322 42.8731 45.9208 43.55C46.016 44.2808 46.2862 44.9993 46.7499 45.6379C47.34 46.4506 48.1479 47.0128 49.0376 47.2963C49.0377 47.2963 49.0377 47.2962 49.0377 47.2961L49.038 47.2963C49.3317 46.4095 49.352 45.425 49.0417 44.4696C48.6589 43.2908 47.8365 42.3802 46.82 41.8481ZM53.1299 43.4263C52.8771 43.61 52.8212 43.9639 53.0047 44.2168C53.1884 44.4697 53.5422 44.5258 53.7949 44.342C54.0476 44.1583 54.1037 43.8043 53.92 43.5515C53.7364 43.2986 53.3827 43.2425 53.1299 43.4263ZM40.2491 48.85C39.9367 48.85 39.6835 49.1033 39.6835 49.4159C39.6835 49.7286 39.9367 49.9819 40.2491 49.9819C40.5616 49.9819 40.8148 49.7286 40.8148 49.4159C40.8148 49.1033 40.5616 48.85 40.2491 48.85ZM46.1083 41.5372C46.1083 41.5372 48.2226 40.4483 49.7286 42.0282C49.5833 43.0176 49.887 44.0604 50.6452 44.8255C51.156 45.3408 51.7945 45.6534 52.461 45.7579C52.5702 45.0926 52.4778 44.3869 52.152 43.7389C51.6647 42.7708 50.7611 42.1491 49.7686 41.9775C48.7502 40.0628 50.4286 38.3965 50.4286 38.3965C49.5011 38.3943 48.566 38.678 47.7587 39.2649C46.9515 39.8517 46.3928 40.6537 46.1083 41.5372ZM43.2957 41.5403C42.3467 41.8488 41.5677 42.4389 41.0242 43.1911C41.0242 43.1911 43.3714 42.8092 44.3158 44.7775C43.872 45.6735 43.8388 46.7591 44.3236 47.7213C44.6501 48.3693 45.1609 48.8639 45.7625 49.1693C46.0718 48.5705 46.202 47.8707 46.0921 47.1537C45.9277 46.0823 45.2605 45.2118 44.3694 44.7415C43.9922 42.6057 46.1032 41.5399 46.1032 41.5399C45.2216 41.251 44.2447 41.2318 43.2957 41.5403ZM51.2051 38.4679C50.9492 38.4242 50.691 38.3947 50.4308 38.3948C50.4308 38.3955 50.4309 38.3961 50.4309 38.3966C50.4302 38.3966 50.4294 38.3965 50.4286 38.3965C50.4282 39.0725 50.5817 39.7421 50.8725 40.3562C51.1886 41.0252 51.6685 41.628 52.3093 42.0939C53.1216 42.6844 54.0635 42.9693 54.9973 42.9638V42.9637C54.9975 42.9637 54.9976 42.9637 54.9976 42.9637C55.0031 42.0294 54.7184 41.0869 54.1282 40.2742C53.4 39.2714 52.3364 38.6595 51.2051 38.4679ZM43.5034 48.334C43.2063 48.4306 43.0437 48.7499 43.1402 49.0473C43.2367 49.3446 43.5558 49.5073 43.853 49.4107C44.1501 49.3141 44.3127 48.9948 44.2161 48.6975C44.1196 48.4001 43.8005 48.2375 43.5034 48.334ZM35.6783 43.1922C35.6783 43.1922 38.0285 43.5547 38.3188 45.7186C37.62 46.4336 37.2531 47.4557 37.4171 48.5207C37.5275 49.238 37.8605 49.8664 38.3383 50.3428C38.8174 49.8689 39.1573 49.2436 39.2743 48.5277C39.4488 47.458 39.0831 46.4236 38.381 45.7011C38.6818 43.5531 41.0185 43.1922 41.0185 43.1922C40.2694 42.6448 39.3462 42.3244 38.3485 42.3244C37.3507 42.3244 36.4275 42.6448 35.6783 43.1922ZM47.1188 47.1587C46.8217 47.2553 46.6591 47.5746 46.7556 47.8719C46.8521 48.1692 47.1713 48.3318 47.4684 48.2353C47.7655 48.1387 47.9281 47.8194 47.8316 47.5221C47.7351 47.2248 47.4159 47.0621 47.1188 47.1587ZM50.0545 45.6619C49.8017 45.8456 49.7457 46.1996 49.9293 46.4525C50.1129 46.7054 50.4667 46.7615 50.7194 46.5777C50.9722 46.394 51.0282 46.0401 50.8446 45.7871C50.6609 45.5343 50.3072 45.4782 50.0545 45.6619ZM59.3205 28.326C58.1214 27.9362 56.8763 28.0725 55.8375 28.6056C55.6244 28.7146 55.419 28.8389 55.2251 28.9801C55.2255 28.9805 55.2259 28.9808 55.2262 28.9814C55.2256 28.9818 55.225 28.9823 55.2244 28.9826C55.6264 29.5372 56.1518 29.9944 56.758 30.321C57.4011 30.6682 58.1356 30.8679 58.918 30.8679C59.922 30.8679 60.8514 30.5445 61.6036 29.9908C61.6036 29.9908 61.6036 29.9908 61.6035 29.9908C61.6036 29.9907 61.6037 29.9907 61.6037 29.9905C61.0593 29.2314 60.2753 28.6364 59.3205 28.326ZM53.5745 31.2554C53.2661 32.2049 53.2853 33.1823 53.5741 34.0644C53.5741 34.0644 54.645 31.9401 56.7915 32.3325C57.2552 33.2184 58.1133 33.8834 59.1763 34.0565C59.8922 34.173 60.5924 34.0502 61.193 33.7429C60.8906 33.1405 60.4013 32.6238 59.757 32.2912C58.7941 31.7946 57.6979 31.8231 56.794 32.2679C54.8453 31.3178 55.2244 28.9826 55.2244 28.9826C54.4726 29.5264 53.8828 30.3059 53.5745 31.2554ZM61.4454 27.6411C61.133 27.6411 60.8798 27.8945 60.8798 28.2071C60.8798 28.5197 61.133 28.7731 61.4454 28.7731C61.7578 28.7731 62.0111 28.5197 62.0111 28.2071C62.0111 27.8945 61.7578 27.6411 61.4454 27.6411ZM61.0773 31.0998C60.7802 31.0032 60.461 31.1659 60.3645 31.4631C60.2679 31.7605 60.4305 32.0798 60.7277 32.1763C61.0248 32.273 61.3439 32.1102 61.4405 31.8129C61.537 31.5157 61.3744 31.1964 61.0773 31.0998ZM57.6699 34.7115C56.6668 33.9823 55.4652 33.7295 54.3292 33.8978C54.0733 33.9354 53.8196 33.9871 53.5732 34.0673C53.5733 34.0679 53.5736 34.0685 53.5738 34.069C53.5731 34.0693 53.5723 34.0694 53.5716 34.0696C53.7799 34.7125 54.1326 35.3018 54.5987 35.7959C55.106 36.3345 55.7487 36.7596 56.5022 37.0045C57.457 37.3149 58.4409 37.2947 59.3272 37.0008C59.3272 37.0007 59.3272 37.0007 59.3272 37.0007C59.3273 37.0006 59.3275 37.0006 59.3276 37.0005C59.0441 36.1103 58.4822 35.302 57.6699 34.7115ZM58.4842 37.8927C58.2314 37.709 57.8777 37.7651 57.694 38.0179C57.5104 38.2708 57.5665 38.6248 57.8192 38.8085C58.072 38.9923 58.4257 38.9362 58.6093 38.6833C58.793 38.4304 58.737 38.0765 58.4842 37.8927ZM51.3005 35.7209C50.714 36.5286 50.4304 37.4642 50.4327 38.3923C50.4327 38.3923 52.1072 36.7031 54.0275 37.7399C54.1948 38.7259 54.8057 39.6237 55.7632 40.1169C56.408 40.4492 57.1119 40.5489 57.778 40.4422C57.6764 39.7758 57.3706 39.1331 56.8605 38.6176C56.0981 37.8477 55.0469 37.5357 54.0499 37.6793C52.49 36.1732 53.5716 34.0696 53.5716 34.0696C52.6886 34.3543 51.887 34.9132 51.3005 35.7209ZM56.2497 40.9699C55.997 40.7861 55.6432 40.8422 55.4596 41.095C55.276 41.348 55.332 41.7019 55.5847 41.8856C55.8375 42.0694 56.1912 42.0133 56.3749 41.7605C56.5585 41.5076 56.5025 41.1536 56.2497 40.9699ZM59.9026 34.7171C59.6055 34.6207 59.2863 34.7832 59.1898 35.0805C59.0932 35.3778 59.2558 35.6971 59.553 35.7937C59.85 35.8903 60.1692 35.7276 60.2658 35.4303C60.3623 35.133 60.1996 34.8137 59.9026 34.7171ZM24.3871 42.0946C25.3909 41.365 26.0028 40.2988 26.1934 39.1652C26.2366 38.9107 26.2658 38.6538 26.2655 38.3952C26.265 38.3952 26.2643 38.3953 26.2637 38.3953C26.2637 38.3946 26.2639 38.3938 26.2639 38.393C25.58 38.3926 24.9023 38.5488 24.2824 38.8468C23.6228 39.1634 23.0289 39.6407 22.5685 40.2748C21.9783 41.0875 21.6935 42.03 21.6991 42.9643H21.6992C21.6992 42.9644 21.6992 42.9645 21.6992 42.9646C22.633 42.97 23.5749 42.6851 24.3871 42.0946ZM19.0025 38.0186C18.8188 37.7657 18.4651 37.7096 18.2123 37.8934C17.9596 38.0771 17.9036 38.4311 18.0872 38.684C18.2708 38.9368 18.6246 38.9929 18.8773 38.8092C19.13 38.6254 19.1861 38.2715 19.0025 38.0186ZM23.1218 31.2563C22.8135 30.3067 22.2237 29.5272 21.4719 28.9835C21.4719 28.9835 21.8536 31.3319 19.8864 32.2769C18.9908 31.8328 17.9059 31.7995 16.9442 32.2847C16.2966 32.6114 15.8022 33.1224 15.497 33.7243C16.0956 34.0338 16.795 34.1641 17.5116 34.0542C18.5823 33.8896 19.4524 33.222 19.9223 32.3306C22.0571 31.9532 23.1222 34.0652 23.1222 34.0652C23.411 33.1832 23.4302 32.2057 23.1218 31.2563ZM20.1941 37.0053C21.3722 36.6224 22.2824 35.7995 22.8142 34.7823C22.9349 34.5523 23.0428 34.3155 23.1231 34.0678C23.1225 34.0676 23.1219 34.0676 23.1213 34.0674C23.1216 34.0667 23.1219 34.0659 23.1222 34.0652C22.477 33.8551 21.7899 33.7941 21.1136 33.8827C20.383 33.9779 19.6648 34.2483 19.0265 34.7122C18.2142 35.3027 17.6523 36.111 17.369 37.0012C17.369 37.0013 17.3691 37.0013 17.3691 37.0013L17.369 37.0016C18.2555 37.2955 19.2392 37.3158 20.1941 37.0053ZM20.4468 40.9706C20.194 41.1543 20.138 41.5083 20.3216 41.7612C20.5053 42.014 20.859 42.0701 21.1118 41.8864C21.3645 41.7026 21.4206 41.3487 21.2369 41.0958C21.0533 40.8429 20.6996 40.7868 20.4468 40.9706ZM23.1249 34.0704C23.1249 34.0704 24.2132 36.1857 22.6342 37.6927C21.6453 37.5472 20.6032 37.851 19.8384 38.6098C19.3234 39.1207 19.011 39.7596 18.9066 40.4264C19.5714 40.5357 20.2768 40.4434 20.9244 40.1173C21.8919 39.6298 22.5133 38.7257 22.6849 37.7326C24.5986 36.7137 26.2639 38.393 26.2639 38.393C26.2662 37.4649 25.9825 36.5293 25.396 35.7217C24.8095 34.9139 24.0078 34.355 23.1249 34.0704ZM17.7781 30.8688C19.0184 30.8688 20.1396 30.3664 20.9597 29.5615C21.1444 29.3809 21.319 29.1901 21.471 28.9806C21.4704 28.9802 21.47 28.9799 21.4695 28.9795C21.4699 28.9789 21.4704 28.9784 21.4709 28.9778C20.9192 28.5762 20.2815 28.3027 19.6068 28.1789C18.8857 28.0458 18.1225 28.0842 17.3758 28.3269C16.421 28.6373 15.637 29.2323 15.0925 29.9914C15.0925 29.9914 15.0925 29.9914 15.0926 29.9914C15.0925 29.9916 15.0924 29.9916 15.0924 29.9917C15.8447 30.5453 16.7741 30.8688 17.7781 30.8688ZM21.4709 23.6346C21.4709 23.6346 21.1086 25.986 18.9458 26.2765C18.2313 25.5773 17.2097 25.2102 16.1453 25.3743C15.4284 25.4848 14.8004 25.818 14.3242 26.296C14.7978 26.7754 15.4228 27.1155 16.1383 27.2326C17.2074 27.4072 18.2412 27.0412 18.9634 26.3387C21.1102 26.6398 21.4709 28.9778 21.4709 28.9778C22.018 28.2283 22.3382 27.3045 22.3382 26.3062C22.3382 25.3078 22.018 24.3841 21.4709 23.6346ZM15.9686 32.1772C16.2657 32.0805 16.4283 31.7613 16.3318 31.464C16.2352 31.1667 15.9161 31.004 15.619 31.1007C15.3219 31.1972 15.1593 31.5165 15.2558 31.8138C15.3524 32.1111 15.6715 32.2738 15.9686 32.1772ZM17.5065 35.0814C17.41 34.7841 17.0909 34.6214 16.7937 34.718C16.4966 34.8145 16.3341 35.1339 16.4305 35.4312C16.5271 35.7285 16.8462 35.8911 17.1433 35.7946C17.4405 35.698 17.6031 35.3787 17.5065 35.0814ZM29.5781 47.159C29.2809 47.0624 28.9618 47.2251 28.8653 47.5224C28.7687 47.8196 28.9313 48.1389 29.2285 48.2356C29.5256 48.3321 29.8446 48.1694 29.9412 47.8722C30.0377 47.5749 29.8751 47.2556 29.5781 47.159ZM33.1935 48.3343C32.8964 48.2377 32.5772 48.4005 32.4807 48.6978C32.3841 48.995 32.5467 49.3143 32.8439 49.4109C33.141 49.5075 33.46 49.3448 33.5567 49.0475C33.6531 48.7502 33.4905 48.4309 33.1935 48.3343ZM36.4477 48.85C36.1353 48.85 35.8821 49.1033 35.8821 49.4159C35.8821 49.7286 36.1353 49.9819 36.4477 49.9819C36.7601 49.9819 37.0133 49.7286 37.0133 49.4159C37.0133 49.1033 36.7601 48.85 36.4477 48.85ZM33.4011 41.5405C32.4521 41.232 31.4751 41.2513 30.5936 41.5402C30.5936 41.5402 32.7168 42.6116 32.3247 44.7594C31.4392 45.2233 30.7746 46.0819 30.6016 47.1456C30.4851 47.8619 30.6077 48.5624 30.915 49.1633C31.517 48.8607 32.0335 48.3712 32.3658 47.7265C32.8621 46.763 32.8338 45.6663 32.3892 44.762C33.3388 42.8122 35.6726 43.1914 35.6726 43.1914C35.1291 42.4392 34.3501 41.8491 33.4011 41.5405ZM36.0499 43.8058C35.9409 43.5922 35.8165 43.3865 35.6752 43.1922C35.6748 43.1925 35.6743 43.1929 35.6739 43.1933C35.6734 43.1927 35.673 43.192 35.6726 43.1914C35.1233 43.5901 34.6702 44.1105 34.3444 44.7101C33.9919 45.3574 33.7885 46.0977 33.7885 46.8869C33.7885 47.8916 34.1117 48.8215 34.665 49.5741C34.665 49.5741 34.665 49.5741 34.6651 49.5741C34.6651 49.5741 34.6652 49.5743 34.6653 49.5743C35.424 49.0296 36.0186 48.2452 36.3289 47.2897C36.7183 46.0904 36.5823 44.8451 36.0499 43.8058ZM23.5668 43.4267C23.314 43.243 22.9603 43.299 22.7766 43.5519C22.5931 43.8049 22.6491 44.1588 22.9018 44.3425C23.1545 44.5263 23.5083 44.4702 23.6919 44.2173C23.8755 43.9644 23.8195 43.6105 23.5668 43.4267ZM29.9468 45.6384C30.6745 44.6363 30.9276 43.4362 30.7609 42.3012C30.7234 42.0434 30.6715 41.7876 30.5907 41.5393C30.5901 41.5395 30.5896 41.5398 30.589 41.5399C30.5888 41.5392 30.5887 41.5385 30.5884 41.5377C29.9421 41.7474 29.3498 42.1027 28.8543 42.573C28.3201 43.0794 27.8986 43.72 27.6552 44.4699C27.3449 45.4253 27.3651 46.4096 27.6589 47.2965H27.659C27.659 47.2967 27.6591 47.2967 27.6591 47.2968C28.5488 47.0133 29.3567 46.4511 29.9468 45.6384ZM26.6422 45.6624C26.3895 45.4788 26.0358 45.5348 25.8521 45.7877C25.6685 46.0405 25.7245 46.3945 25.9773 46.5782C26.23 46.762 26.5838 46.706 26.7674 46.453C26.951 46.2002 26.895 45.8462 26.6422 45.6624ZM15.8162 28.2079C15.8162 27.8954 15.563 27.642 15.2506 27.642C14.9381 27.642 14.6849 27.8954 14.6849 28.2079C14.6849 28.5205 14.9381 28.774 15.2506 28.774C15.563 28.774 15.8162 28.5205 15.8162 28.2079ZM28.938 39.2654C28.1308 38.6786 27.1957 38.3947 26.2681 38.397C26.2681 38.397 27.9564 40.0724 26.9201 41.9939C25.9347 42.1613 25.0374 42.7724 24.5444 43.7305C24.2124 44.3757 24.1127 45.0799 24.2193 45.7464C24.8853 45.6447 25.5277 45.3388 26.0429 44.8284C26.8125 44.0656 27.1242 43.0138 26.9806 42.0162C28.486 40.4555 30.5884 41.5377 30.5884 41.5377C30.304 40.6543 29.7452 39.8522 28.938 39.2654Z" fill="#D7B483"/>
<path d="M38.2399 53.2787C23.559 53.2787 11.6152 41.3282 11.6152 26.6394C11.6152 11.9504 23.559 0 38.2399 0C52.9208 0 64.8644 11.9504 64.8644 26.6394C64.8644 41.3282 52.9208 53.2787 38.2399 53.2787ZM38.2399 0.782036C23.99 0.782036 12.3968 12.3816 12.3968 26.6394C12.3968 40.8971 23.99 52.4967 38.2399 52.4967C52.4897 52.4967 64.0828 40.8971 64.0828 26.6394C64.0828 12.3816 52.4897 0.782036 38.2399 0.782036Z" fill="#D7B483"/>
<path d="M33.6218 23.6509C33.5307 24.4326 33.5234 25.2146 33.6179 25.9963C32.8632 26.04 32.2279 25.8095 32.2491 26.729L32.2585 28.2798C33.5416 29.5 35.9391 29.7517 37.6801 28.8813C40.0116 27.685 40.6156 23.9308 38.7382 21.5659C39.4046 20.9599 40.1668 20.6003 41.0742 20.6139C41.8782 21.8594 42.3418 23.2634 42.3655 24.8723C42.0376 31.2982 36.5149 32.893 32.2377 31.0537L32.2046 33.3979C32.1912 33.8411 32.1671 33.858 31.7663 33.8659H30.3102C29.9178 33.8659 29.8828 33.8978 29.8828 33.3803V24.0929C29.8828 23.6773 29.9338 23.6724 30.3183 23.6654L33.6218 23.6509ZM37.2813 17.9504C36.3976 18.3709 35.8221 19.0165 35.2181 19.6718C34.9771 19.9334 34.9843 19.9441 34.6308 20.0088C33.678 20.183 32.7845 20.5801 31.9442 21.1863C31.4978 21.1863 30.7188 20.3932 30.5084 19.8724C30.4355 19.6915 30.4322 19.677 30.5467 19.5385C31.8533 17.958 34.9719 17.1571 37.2813 17.9504ZM42.8205 26.0226C42.9396 25.2544 42.943 24.4319 42.8287 23.6466H46.068C46.2433 23.6443 46.5734 23.654 46.5958 24.1863V33.5789C46.5995 33.8642 46.523 33.8677 46.3301 33.8662H44.5031C44.3211 33.8671 44.2632 33.8572 44.2629 33.6083L44.2599 31.0712C42.6511 31.8016 40.9073 31.9223 39.0441 31.5034C40.1153 31.0747 40.9277 30.3878 41.5159 29.4153C42.6487 29.273 43.3935 28.9552 43.9199 28.5643C44.2139 28.3458 44.2469 28.2215 44.2471 27.8531L44.2483 26.3345C44.2365 26.0255 44.0643 26.0342 43.9029 26.0138L42.8205 26.0226ZM45.9802 19.8944L44.9402 21.0307C44.6513 21.3426 44.6759 21.2616 44.3443 21.009C44.2278 20.9204 44.1046 20.8424 43.9806 20.7674C42.4485 19.8393 40.5282 19.7488 39.1842 20.4251C36.7127 21.6688 35.5317 25.2099 37.8181 28.1259C37.1375 28.6093 36.246 28.8008 35.1984 28.7751C31.8674 23.358 36.4827 16.1645 42.9494 17.8841C43.927 18.144 44.889 18.6533 45.8995 19.3962C46.1915 19.611 46.2436 19.6189 45.9802 19.8944Z" fill="#D7B483"/>
<path d="M25.932 85.0565L26.184 85.0717C26.5249 85.0923 26.5683 84.8145 26.7329 84.582C26.9699 84.2471 27.2327 83.9576 27.5937 83.7535C27.934 83.5611 28.2616 83.5735 28.5903 83.7873C28.9102 84.0064 29.0226 84.303 28.8874 84.6698C28.6512 85.3106 28.1738 85.6925 27.5454 85.9176C27.4251 85.9655 27.3003 85.9953 27.1751 86.0256C27.1216 86.1787 27.0872 86.3539 27.2449 86.4492C27.4932 86.5991 28.0477 86.2959 28.2594 86.1691C28.6278 85.9484 29.0305 85.643 29.3339 85.3396C29.785 84.8881 30.2637 85.4931 29.7673 85.8885C29.3841 86.238 29.0023 86.5707 28.556 86.8404C28.0447 87.1494 27.3951 87.4012 26.8066 87.1599C26.2786 86.9434 26.1239 86.4192 26.1979 85.8887C26.2231 85.6724 26.1537 85.5143 26.0335 85.3339L25.8866 85.1135C25.3713 85.7587 24.8267 86.3797 24.2117 86.9498C24.0544 87.0955 23.8578 87.2095 23.6668 87.3051L23.6609 87.3079C23.0582 87.5807 22.213 87.3562 22.1003 86.6394C22.0768 86.5383 22.0642 86.435 22.0592 86.3312C21.7639 86.5257 21.4663 86.7176 21.1632 86.903C20.9505 87.025 20.7114 87.1139 20.4682 87.1441C19.7771 87.2164 19.3204 86.7995 19.3328 86.1624C19.2163 86.2581 19.0989 86.3527 18.9783 86.4422C18.7759 86.5923 18.5661 86.7311 18.3566 86.8709L18.3508 86.8746C18.0543 87.0556 17.7432 87.0192 17.4532 86.8485L17.4478 86.8454L17.4427 86.8418C17.1998 86.6737 17.082 86.4282 17.1891 86.1387C17.2516 85.9698 17.3075 85.8037 17.4106 85.6541C17.8385 84.9508 18.3849 84.342 19.0509 83.8603C19.2197 83.7336 19.4043 83.6467 19.5923 83.5454C20.2918 83.1958 20.8656 83.4978 21.4563 83.8819L21.6 83.9754L21.5044 84.1177C21.0064 84.859 20.4112 85.5336 20.2486 86.4283C20.3955 86.4045 20.5237 86.3448 20.6664 86.269C21.1584 85.9734 21.6545 85.6848 22.1472 85.3906C22.2729 84.718 22.5151 84.0831 22.8572 83.4915C23.0379 83.165 23.3878 83.0833 23.6821 83.3189C23.9276 83.5079 23.8816 83.7196 23.7538 83.9578L23.7503 83.9638C23.2865 84.7482 23.1025 85.6034 23.0363 86.5037C23.0367 86.5337 23.0405 86.6031 23.0547 86.6321C23.1431 86.631 23.3308 86.4588 23.3828 86.3997L23.3871 86.3949L23.3918 86.3903C24.6203 85.1956 25.5964 83.8859 26.6416 82.5392C26.9803 82.1028 27.1932 82.2091 27.5989 82.5066L27.7229 82.5975L27.644 82.7295C27.5893 82.8209 27.5876 82.8844 27.5048 82.9716C26.9798 83.672 26.4714 84.3772 25.932 85.0565ZM17.3085 79.1852C17.3409 79.1175 17.3611 79.0285 17.3713 78.9577C17.403 78.6715 17.3403 78.5867 17.0572 78.5131C16.6119 78.3859 16.17 78.4616 15.7295 78.5563C14.7576 78.7653 13.8774 79.2256 13.0732 79.8001C12.0022 80.5654 11.068 81.4824 10.3126 82.562C10.1275 82.8265 9.98474 83.1261 9.8514 83.4194C9.82079 83.499 9.80796 83.6189 9.79784 83.7301C10.0118 83.764 10.2285 83.8035 10.442 83.8138C11.3079 83.8557 12.1754 83.8547 13.0386 83.9096C13.7355 83.9374 14.414 84.0647 15.0599 84.3316C15.4344 84.4757 15.7709 84.6944 16.0473 84.9856C16.4669 85.4054 16.5958 85.9201 16.4592 86.4979C16.3016 87.0996 15.9629 87.5885 15.5439 88.0353C14.4565 89.1946 13.1555 90.0112 11.6291 90.4605C11.2189 90.5812 10.8225 90.603 10.4409 90.3736C9.90767 90.0344 9.80391 89.5994 10.1734 89.0796C10.3719 88.8004 10.6056 88.5478 10.8486 88.305C11.6028 87.5782 12.4411 86.9538 13.3976 86.5218C13.8494 86.3177 13.9603 86.4222 14.2337 86.811L14.3425 86.9659L14.1763 87.0565C14.0312 87.1356 13.8951 87.2314 13.7486 87.3045C12.8283 87.7849 12.0368 88.4451 11.337 89.2096C11.2238 89.3333 11.1254 89.4702 11.0303 89.6092C11.0796 89.601 11.1281 89.5907 11.175 89.5768C12.6765 89.0668 13.96 88.246 14.9766 87.0191C15.2466 86.6932 15.4644 86.3392 15.5271 85.9127C15.5843 85.5236 15.4983 85.3458 15.145 85.1747C14.6736 84.9652 14.1469 84.8604 13.6333 84.8209C12.9339 84.7797 12.2316 84.7664 11.533 84.7253C11.0852 84.7115 10.6352 84.6828 10.1866 84.6429C9.99689 84.626 9.78715 84.5657 9.61898 84.4745C8.91716 84.137 8.67585 83.5392 8.93584 82.8051L8.93825 82.7988C9.02591 82.5795 9.12398 82.3644 9.25473 82.1669C10.5735 80.1749 12.3317 78.7225 14.5846 77.9046C15.1736 77.6908 15.7842 77.5776 16.4126 77.6074C17.0024 77.6353 17.5185 77.8418 17.9102 78.2924C18.2678 78.681 18.3674 79.1708 18.1107 79.6471C17.657 80.4888 16.9555 81.0634 16.0692 81.4059C15.6425 81.5707 15.3213 81.4111 15.1432 81.0012L15.0577 80.8046L15.2687 80.7675C16.2203 80.6003 16.8248 79.9809 17.3085 79.1852ZM35.0211 85.2738C35.2172 84.7722 35.4484 84.2855 35.7142 83.8171C35.9842 83.3415 36.1826 83.363 36.5732 83.7049L36.6726 83.792L36.6119 83.9095C36.2991 84.5153 36.0378 85.1408 35.838 85.7895C36.4003 85.2242 36.9519 84.6484 37.5153 84.0843C37.6771 83.9088 37.8762 83.7794 38.0754 83.6511C38.3246 83.4749 38.5912 83.4906 38.8365 83.6636C39.0967 83.8229 39.1432 84.0755 39.0869 84.3572L39.0852 84.3648C39.0297 84.5887 38.9571 84.8056 38.8763 85.0215C38.753 85.4185 38.6015 85.8062 38.482 86.2045L38.4806 86.2091L38.479 86.2137C38.456 86.277 38.4413 86.3562 38.43 86.4385C39.0346 86.13 39.6414 85.6031 40.159 85.2144L40.2278 85.1627L40.3101 85.188C40.798 85.3385 40.8033 85.729 40.4129 86.0068C39.9645 86.3258 39.5527 86.7111 39.0986 87.0202L39.0932 87.0238C38.9624 87.1057 38.8129 87.1772 38.6609 87.2091C37.9766 87.4005 37.4122 86.9002 37.5395 86.1946C37.6146 85.7786 37.7644 85.3771 37.8862 84.9707C37.9023 84.9221 37.9194 84.8752 37.9363 84.829C37.4885 85.2909 37.0436 85.7555 36.5973 86.2188C36.382 86.4423 36.1726 86.6714 35.9531 86.8909L35.9492 86.8948L35.9449 86.8986C35.8294 86.9997 35.7082 87.0905 35.5739 87.1651L35.5668 87.169L35.5593 87.1722C35.1369 87.356 34.64 87.0462 34.64 86.58C34.64 86.5408 34.6426 86.5006 34.6473 86.4603C34.4325 86.6418 34.2163 86.8218 34.0049 87.0075C33.4092 87.5308 32.7777 87.0586 32.8372 86.3607C32.8937 85.6996 33.0907 85.0873 33.4022 84.5066C33.4488 84.4128 33.5165 84.3325 33.5756 84.2441L33.5826 84.2336L33.591 84.2243C33.9549 83.824 34.2667 83.9018 34.5857 84.301L34.683 84.4228L34.5695 84.5295C34.1425 84.9314 33.9324 85.4393 33.7825 85.9974C33.7662 86.0516 33.7205 86.2055 33.6939 86.3306C33.8358 86.228 34.0329 86.0658 34.0906 86.0225C34.3906 85.7826 34.6912 85.5536 34.9867 85.303C34.9981 85.2932 35.0096 85.2835 35.0211 85.2738ZM35.281 82.963C35.0957 83.2681 34.9025 83.5679 34.7226 83.8762L34.6671 83.9712L34.5578 83.9588C34.2215 83.9207 34.0226 83.7208 34.1129 83.3789C34.1676 83.1716 34.2979 82.9888 34.4031 82.8051L34.4071 82.7985C34.6848 82.3609 34.902 82.4319 35.2506 82.7506L35.3531 82.8443L35.281 82.963ZM45.8712 89.6092C45.9205 89.601 45.969 89.5907 46.0159 89.5768C47.5174 89.0668 48.8009 88.246 49.8175 87.0191C50.0875 86.6932 50.3053 86.3391 50.368 85.9127C50.4252 85.5236 50.3391 85.3458 49.9859 85.1747C49.5144 84.9652 48.9878 84.8604 48.4741 84.8209C47.7747 84.7797 47.0725 84.7664 46.3739 84.7253C45.926 84.7115 45.476 84.6828 45.0275 84.6429C44.8377 84.626 44.628 84.5657 44.4599 84.4745C43.7581 84.137 43.5168 83.5392 43.7767 82.8051L43.7791 82.7988C43.8668 82.5795 43.9649 82.3644 44.0956 82.1669C45.4144 80.1749 47.1726 78.7225 49.4255 77.9046C50.0145 77.6908 50.625 77.5776 51.2534 77.6074C51.8433 77.6353 52.3594 77.8418 52.7511 78.2924C53.1087 78.681 53.2083 79.1708 52.9516 79.6471C52.4979 80.4888 51.7964 81.0634 50.9101 81.4059C50.4835 81.5707 50.1621 81.4112 49.984 81.0012L49.8985 80.8046L50.1096 80.7675C51.0612 80.6003 51.6657 79.9809 52.1495 79.1852C52.1818 79.1175 52.202 79.0285 52.2122 78.9577C52.2439 78.6715 52.1812 78.5867 51.8981 78.5131C51.4528 78.3859 51.0109 78.4616 50.5704 78.5563C49.5985 78.7653 48.7183 79.2256 47.9142 79.8001C46.8431 80.5654 45.909 81.4824 45.1535 82.562C44.9684 82.8265 44.8256 83.1261 44.6923 83.4194C44.6617 83.499 44.6489 83.6189 44.6387 83.7301C44.8527 83.764 45.0694 83.8035 45.283 83.8138C46.1488 83.8557 47.0163 83.8547 47.8795 83.9096C48.5764 83.9374 49.2549 84.0647 49.9008 84.3316C50.2753 84.4757 50.6118 84.6944 50.8882 84.9856C51.3078 85.4054 51.4367 85.9201 51.3001 86.4979C51.1425 87.0996 50.8038 87.5885 50.3848 88.0353C49.2975 89.1946 47.9964 90.0112 46.47 90.4605C46.0598 90.5812 45.6634 90.603 45.2818 90.3736C44.7485 90.0344 44.6448 89.5994 45.0144 89.0796C45.2128 88.8004 45.4465 88.5478 45.6894 88.305C46.4437 87.5782 47.282 86.9538 48.2385 86.5218C48.6903 86.3177 48.8012 86.4222 49.0746 86.811L49.1834 86.966L49.0172 87.0565C48.8721 87.1356 48.736 87.2314 48.5895 87.3045C47.6692 87.7849 46.8777 88.4451 46.1779 89.2096C46.0647 89.3333 45.9663 89.4702 45.8712 89.6092ZM64.5323 79.3082C64.65 79.1918 64.7809 79.1517 64.9172 79.0669C65.4312 78.7678 66.098 79.2663 65.9747 79.7967C65.9134 80.0607 65.8315 80.3428 65.6978 80.5796C65.2834 81.3131 64.7499 81.9541 64.1525 82.5443C63.6634 83.0272 63.1538 83.4891 62.6478 83.9541C62.574 84.0276 62.4537 84.1351 62.4127 84.227C62.0141 85.1842 61.6384 86.1738 61.5237 87.2136C61.519 87.2561 61.508 87.3937 61.5252 87.4535C61.6585 87.4254 62.0342 87.1082 62.1256 87.0356C62.4447 86.7822 62.7662 86.5258 63.0635 86.2469C63.3212 86.0051 63.5574 85.7454 63.7885 85.4789C63.7629 85.4287 63.7333 85.3803 63.7024 85.3339L63.5141 85.0512L63.8529 85.0717C64.1938 85.0923 64.2372 84.8145 64.4018 84.582C64.6388 84.2471 64.9016 83.9576 65.2626 83.7535C65.6029 83.5611 65.9305 83.5735 66.2593 83.7873C66.5792 84.0064 66.6915 84.303 66.5563 84.6698C66.32 85.3105 65.8427 85.6925 65.2143 85.9176C65.0941 85.9655 64.9692 85.9953 64.8441 86.0256C64.7905 86.1787 64.7561 86.3539 64.9138 86.4492C65.1621 86.5991 65.7166 86.2959 65.9283 86.1691C66.2967 85.9484 66.6995 85.643 67.0028 85.3396C67.4539 84.8881 67.9326 85.4931 67.4362 85.8885C67.053 86.238 66.6712 86.5707 66.2249 86.8404C65.7136 87.1494 65.064 87.4012 64.4755 87.1599C64.1532 87.0277 63.9633 86.7742 63.8874 86.4674C63.5537 86.808 63.2267 87.1545 62.8857 87.4894C62.6516 87.7514 62.3306 87.9612 62.0271 88.1345L62.022 88.1374C61.3971 88.466 60.7256 88.1933 60.6554 87.4603C60.602 87.053 60.6757 86.6563 60.7539 86.2585C60.3725 86.4427 59.9818 86.6017 59.5939 86.7752L59.5878 86.7778C59.4341 86.8393 59.3697 86.9371 59.3152 87.0884C59.0816 87.7366 58.8342 88.3802 58.5592 89.0137C58.2615 89.6659 57.8811 90.2628 57.3416 90.7395C56.522 91.4636 55.5795 91.5141 54.676 90.9029C54.0111 90.4532 53.8634 89.8516 54.3631 89.1978C54.6479 88.8253 54.996 88.4906 55.3617 88.1979C56.2463 87.49 57.2535 86.9517 58.28 86.4812C58.5327 86.3653 58.6912 86.2282 58.7603 85.9511C58.863 85.5397 59.0019 85.1397 59.1332 84.737C59.0534 84.8009 58.9744 84.8657 58.8965 84.9318L58.8927 84.935L58.8887 84.938C58.1845 85.4664 57.485 86.0013 56.7836 86.5381C56.5825 86.6818 56.3643 86.7905 56.1556 86.9162L56.1499 86.9196L56.1439 86.9225C55.8428 87.073 55.5253 87.0302 55.2655 86.8206C55.2125 86.7778 55.1658 86.7306 55.1266 86.6786C55.0965 86.7111 55.0659 86.7431 55.0348 86.7745L54.9089 86.9125C54.4978 87.363 53.9523 87.8946 53.3984 88.1646C53.0623 88.3284 52.6346 88.4282 52.3233 88.156C51.6546 87.5709 52.2128 85.9415 52.4831 85.2851C52.8475 84.4 53.2609 83.5478 53.7058 82.7009L53.7099 82.6932L53.7148 82.6859C53.7572 82.6222 53.7955 82.5492 53.8318 82.4744C53.7051 82.4771 53.5781 82.4785 53.4532 82.47C52.2802 82.47 51.107 82.4562 49.934 82.4562C49.8021 82.4562 49.6323 82.3806 49.5565 82.5018C49.4739 82.6263 49.2538 82.6428 49.1344 82.5677C48.8457 82.3942 48.6488 82.2317 48.6179 81.8642L48.6038 81.6971L48.7706 81.6819C48.9268 81.6675 49.0794 81.6401 49.2398 81.6402C50.0273 81.6658 50.819 81.6662 51.6044 81.6758C52.3934 81.6855 53.199 81.6839 53.9863 81.7223C54.2103 81.7333 54.3149 81.6701 54.4383 81.4834C54.8405 80.8751 55.2692 80.2848 55.7167 79.7092C56.055 79.274 56.3005 79.4326 56.5643 79.8288L56.6371 79.9382L56.5489 80.0357C56.0808 80.5534 55.6878 81.1327 55.3319 81.7321L56.9871 81.7903C57.1263 81.7903 57.2669 81.7914 57.4055 81.8224C57.6673 81.888 57.8262 82.0407 57.8742 82.3128L57.9045 82.4849L57.7315 82.5094C57.6341 82.5231 57.5335 82.5382 57.435 82.5382C56.6506 82.5382 55.8661 82.5383 55.0833 82.5245C54.9223 82.5245 54.8472 82.5392 54.7714 82.691L54.7687 82.6962C54.2435 83.6636 53.7241 84.6404 53.3296 85.6699C53.1723 86.0804 52.9895 86.583 52.9303 87.02C52.9216 87.0841 52.8907 87.3874 52.9683 87.4275C53.0599 87.4749 53.3419 87.3115 53.4149 87.2661C53.7737 87.0428 54.1297 86.7199 54.4359 86.4301C54.7046 86.1758 54.9387 85.8929 55.1386 85.5819C55.3554 84.915 55.6769 84.294 56.0484 83.7013L56.0519 83.6959C56.3276 83.2912 56.6764 83.3145 56.9457 83.7097L56.952 83.7189L56.9569 83.7289C56.9807 83.7762 56.9916 83.821 57.0119 83.8662L57.0752 83.9917L56.9622 84.0766C56.9194 84.1088 56.7438 84.2129 56.7285 84.2424C56.6107 84.5087 56.0125 85.6895 55.9744 86.0608C56.0414 86.0252 56.1267 85.9631 56.1579 85.9395C57.1116 85.2157 58.0548 84.4781 58.9977 83.7403C59.1203 83.6444 59.244 83.55 59.3661 83.4535C59.5615 83.2992 59.7681 83.3249 59.975 83.4379L59.9799 83.4406L59.9846 83.4436C60.1825 83.5696 60.3057 83.7553 60.2657 83.9964L60.2641 84.0061L60.2614 84.0154C60.2341 84.1103 60.2208 84.2086 60.1925 84.3039C60.0266 84.8646 59.8049 85.4176 59.6403 85.9798C60.083 85.8014 60.5461 85.6187 60.9381 85.371C60.955 85.3603 60.9719 85.3496 60.989 85.3391C61.042 85.1575 61.095 84.9758 61.1415 84.7925C61.0729 84.7752 61.0038 84.7589 60.9307 84.717L60.9256 84.7141L60.9207 84.7108C60.8003 84.6303 60.7389 84.4828 60.6576 84.3666L60.5043 84.1476L60.7679 84.1032C60.8523 84.089 60.9921 84.0818 61.0689 84.0553C61.3472 83.9593 61.5485 83.7953 61.6652 83.5201C62.1514 82.3739 62.7519 81.2813 63.5336 80.3087C63.8291 79.941 64.1861 79.6265 64.5323 79.3082ZM20.0756 84.2967C19.7912 84.4333 19.5156 84.6406 19.3282 84.8038C19.0701 85.0285 18.8136 85.3047 18.6013 85.6041C19.1169 85.1947 19.6003 84.7535 20.0756 84.2967ZM27.6191 85.0809C27.827 84.9512 28.0173 84.7761 28.1169 84.5973C28.126 84.5809 28.1433 84.5478 28.1578 84.514C28.113 84.5383 28.0667 84.5721 28.045 84.5903C27.8924 84.7182 27.743 84.8941 27.6191 85.0809ZM58.2656 87.267C57.1354 87.8436 55.4234 88.8966 54.9796 89.929C54.873 90.1638 54.9424 90.3072 55.1502 90.4444C55.4934 90.6708 55.8521 90.6535 56.2096 90.4629C56.5711 90.2818 56.8554 89.9655 57.0945 89.6507C57.5597 89.0124 57.8991 88.3106 58.1787 87.5726C58.2152 87.4763 58.2408 87.3725 58.2656 87.267ZM64.9264 80.1726C64.4171 80.6423 63.8558 81.3839 63.4904 82.0297C64.0411 81.4588 64.54 80.8724 64.9264 80.1726ZM65.288 85.0809C65.4959 84.9512 65.6862 84.7761 65.7858 84.5973C65.7949 84.5809 65.8122 84.5478 65.8267 84.514C65.7819 84.5383 65.7356 84.5721 65.7139 84.5903C65.5613 84.7182 65.4119 84.8941 65.288 85.0809Z" fill="#D7B483"/>
</svg>
